<?xml version="1.0" encoding="UTF-8"?>
<svg id="layer" xmlns="http://www.w3.org/2000/svg" width="16" height="17" version="1.1" viewBox="0 0 16 17">
  <!-- Generator: Adobe Illustrator 29.1.0, SVG Export Plug-In . SVG Version: 2.1.0 Build 142)  -->
  <defs>
    <style>
      .st0 {
        fill: #3e4347;
      }

      .st1 {
        fill: #83bf4f;
      }
    </style>
  </defs>
  <polygon class="st1" points="14.6 .7 5.9 10.3 3.4 8.4 2 8.4 5.9 14.8 16 .7 14.6 .7"/>
  <path class="st0" d="M13.5,14.8c0,.2-.1.3-.3.3H2c-.2,0-.3-.1-.3-.3V3.5c0-.2.1-.3.3-.3h7.7l1.5-1.7H.6c-.3,0-.6.3-.6.6v14c0,.3.3.6.6.6h14c.3,0,.6-.3.6-.6V5.3l-1.7,2.3v7.2h0Z"/>
</svg>