<?xml version="1.0" encoding="UTF-8"?>
<svg id="layer" xmlns="http://www.w3.org/2000/svg" width="100" height="126.6" version="1.1" viewBox="0 0 100 126.6">
  <!-- Generator: Adobe Illustrator 29.1.0, SVG Export Plug-In . SVG Version: 2.1.0 Build 142)  -->
  <defs>
    <style>
      .st0 {
        fill: #666;
      }
    </style>
  </defs>
  <path class="st0" d="M38.5,95.9c0,7.1,0,15.2,0,22.2,0,.8,0,1.5.1,2.2.3,2,.8,3.5,1.7,4.5,1,1.2,2.5,1.8,4.5,1.8,0,0,0,0,0,0,1.6,0,3-.5,4-1.6,1.3-1.3,2-3.3,2-5.8,0-7.5,0-15.3,0-22.9,0-3,0-5.9,0-8.8v-1.1c0-.3.2-.5.5-.5h1.3c.3,0,.5.2.5.5v1.4c0,2.9,0,5.9,0,8.8,0,7.3,0,14.9,0,22.1,0,2.7.7,4.8,2,6.1,1.1,1.1,2.6,1.6,4.5,1.6h0c1.4,0,2.7-.5,3.7-1.5,1.4-1.4,2.1-3.6,2.1-6.4,0-8.9.1-40.8.1-42v-.5s.9-14.1.9-14.1l.5-8.7,16-28.2,6.1,5.2c0,0,.2.1.2.2l2.2,1.8c.3.3.7.4,1.1.4s1-.2,1.3-.6l4.9-5.8c.6-.7.5-1.8-.2-2.5,0,0,0,0,0,0l-2.8-2.3s0,0-.1,0L72.9,1.8s0,0,0,0c0,0,0,0,0,0,0,0-.1,0-.2-.1,0,0,0,0,0,0,0,0-.1,0-.2,0,0,0,0,0,0,0l-6.3-1.1-2.1-.4c-.4,0-.8,0-1.1.4-.3.3-.4.7-.2,1.1l1,3.1c0,0,0,.1,0,.2l1.6,4.8c0,.1.1.2.2.4,0,0,.1.2.2.2l9.3,7.9-14.3,24.6c-.4,0-.7-.1-1.1-.1-2.6-.8-5.3-1.2-8-1.2-2.3,0-4.6.4-6.7,1.2-.4,0-.7,0-1.1.1l-16.8-26.6s0,0,0,0c-.9-1.4-2.5-2.3-4.2-2.3s0,0,0,0c-1.8,0-3.5,1-4.4,2.6-.9,1.6-.9,3.5.1,5.1l18.8,31.6c.1,5.6,1.3,22.4,1.4,23.6,0,.3,0,2.4,0,5.7v13.5ZM92.7,30.2l-1-.9,4.1-4.9,1.1.9-4.2,4.9ZM66.9,7l-.7-2c.3-.2.6-.5.9-.8.3-.3.5-.7.6-1l2.1.4-3,3.5ZM72.2,4.3l21.5,18.4-4.1,4.9-5.3-4.5h0c.9-1.8.9-3.7,0-5.4-.9-1.6-2.6-2.6-4.5-2.7-1.3,0-2.6.4-3.5,1.3l-8.3-7.1,4.1-4.9ZM63.4,76.6s0,0,0,0c0,.3,0,33-.1,42.1,0,2.2-.5,3.8-1.4,4.7-.5.5-1.2.8-2.1.8h0c-1.3,0-2.2-.3-2.8-1-.9-.9-1.3-2.4-1.3-4.5,0-7.3,0-14.8,0-22.1,0-3,0-5.9,0-8.8v-1.4c0-1.6-1.3-2.8-2.8-2.8h-1.3c-1.6,0-2.8,1.3-2.8,2.8v1.1c0,2.9,0,5.9,0,8.8,0,7.6,0,15.4,0,22.9,0,1.8-.5,3.3-1.3,4.2-.6.6-1.4.9-2.4.9-1.7,0-2.3-.6-2.7-1-.6-.7-1-1.8-1.2-3.3,0-.6-.1-1.2-.1-1.9,0-17.4,0-41.2,0-41.4,0,0,0,0,0,0,0-.2-1.3-18.6-1.4-23.8,0-.2,0-.4-.2-.6l-19-31.9s0,0,0,0c-.5-.8-.5-1.9,0-2.7.5-.9,1.4-1.4,2.4-1.4,0,0,0,0,0,0,.9,0,1.8.5,2.3,1.2l17.3,27.3c.3.4.8.6,1.3.5.5-.1,1-.2,1.5-.2h0c.1,0,.3,0,.4,0,2-.7,4.1-1,6.2-1.1,2.5,0,5,.3,7.3,1.1.1,0,.2,0,.4,0,.5,0,1,0,1.6.2.5.2,1.1,0,1.3-.5l15-25.8c.5-.9,1.5-1.5,2.6-1.4,1.1,0,2,.6,2.5,1.5.5.9.5,2,0,2.9,0,0,0,0,0,0l-17.3,30.6c0,.2-.1.3-.1.5l-1.5,23.6Z"/>
  <path class="st0" d="M51.8,39.7c5.7,0,10.2-4.8,10.2-10.7s-4.6-10.7-10.2-10.7-10.2,4.8-10.2,10.7,4.6,10.7,10.2,10.7ZM51.8,20.7c4.4,0,7.9,3.7,7.9,8.4s-3.5,8.4-7.9,8.4-7.9-3.7-7.9-8.4,3.5-8.4,7.9-8.4Z"/>
  <path class="st0" d="M87.2,88.6h-2.3v-2.3c0-.9-.7-1.6-1.6-1.6s-1.6.7-1.6,1.6v2.3h-2.3c-.9,0-1.6.7-1.6,1.6s.7,1.6,1.6,1.6h2.3v2.3c0,.9.7,1.6,1.6,1.6s1.6-.7,1.6-1.6v-2.3h2.3c.9,0,1.6-.7,1.6-1.6s-.7-1.6-1.6-1.6Z"/>
  <path class="st0" d="M95.7,46.2h-2.3v-2.3c0-.9-.7-1.6-1.6-1.6s-1.6.7-1.6,1.6v2.3h-2.3c-.9,0-1.6.7-1.6,1.6s.7,1.6,1.6,1.6h2.3v2.3c0,.9.7,1.6,1.6,1.6s1.6-.7,1.6-1.6v-2.3h2.3c.9,0,1.6-.7,1.6-1.6s-.7-1.6-1.6-1.6Z"/>
  <path class="st0" d="M13,89.7h-2.3v-2.3c0-.9-.7-1.6-1.6-1.6s-1.6.7-1.6,1.6v2.3h-2.3c-.9,0-1.6.7-1.6,1.6s.7,1.6,1.6,1.6h2.3v2.3c0,.9.7,1.6,1.6,1.6s1.6-.7,1.6-1.6v-2.3h2.3c.9,0,1.6-.7,1.6-1.6s-.7-1.6-1.6-1.6Z"/>
  <path class="st0" d="M8.7,31.4h-2.3v-2.3c0-.9-.7-1.6-1.6-1.6s-1.6.7-1.6,1.6v2.3H1c-.9,0-1.6.7-1.6,1.6s.7,1.6,1.6,1.6h2.3v2.3c0,.9.7,1.6,1.6,1.6s1.6-.7,1.6-1.6v-2.3h2.3c.9,0,1.6-.7,1.6-1.6s-.7-1.6-1.6-1.6Z"/>
  <path class="st0" d="M16.7,60.4h2.3v2.3c0,.9.7,1.6,1.6,1.6s1.6-.7,1.6-1.6v-2.3h2.3c.9,0,1.6-.7,1.6-1.6s-.7-1.6-1.6-1.6h-2.3v-2.3c0-.9-.7-1.6-1.6-1.6s-1.6.7-1.6,1.6v2.3h-2.3c-.9,0-1.6.7-1.6,1.6s.7,1.6,1.6,1.6Z"/>
</svg>