<?xml version="1.0" encoding="UTF-8"?>
<svg id="layer" xmlns="http://www.w3.org/2000/svg" width="112.8" height="28" version="1.1" viewBox="0 0 112.8 28">
  <!-- Generator: Adobe Illustrator 29.1.0, SVG Export Plug-In . SVG Version: 2.1.0 Build 142)  -->
  <defs>
    <style>
      .st0 {
        fill: #f7931e;
      }
    </style>
  </defs>
  <path class="st0" d="M10.1,3.3c3.6-.5,6.8.3,9.8,2.3,6.8-4.9,16.5-2.2,19.2,5.8,4,11.7-9.4,21.2-19.2,14C10.6,31.9-1.3,24.9.1,13.6.7,8.8,5.3,4,10.1,3.3ZM15.7,10.2c-.4-.4-6.3-.5-7.3-.3-2.4.3-1.2,4.8-1.5,6.8s-1.7,3,.2,3.5c1.1-.7,1.3-2,1.6-3.1l5.5-.5v1.6s-1.6-.1-1.6-.1c-1.4,1.4,0,1.9,1.5,2s1.8-.4,2-1.7.1-7.6-.3-8.1ZM32.5,18.8c.3-1.2,0-6.5,0-8.2s-1.9-.8-1.9,0v7.6l-1.3-.3c.1-.3.5-.5.5-.9.1-.7.1-5.2,0-5.8-.3-1.1-1.1-.4-1.6-.5s-.6-.4-1.1-.5c-.8,0-3.5-.1-4,.3l-.3.7.3.7,1.5.3v1.9c-2.8-.4-2.8,2.2,0,1.9v3.9c0,.8,1.9.8,1.9,0v-3.9l1.6-.3c0,.6,0,1.3.1,1.9s.7.5.7.5c.1.2-1.1,1.1,0,1.7s3.4.5,3.7-.8Z"/>
  <path class="st0" d="M62.6,8.8c-4.4-4.3.7-11.2,6-8s2.1,9.6-2.8,9.1v3.2s-6.9,0-6.9,0v13.3h-5.6c0-.2.3-.3.3-.4v-12.5l-.4-.4h-8.6v-4.3h9V2.7h5.3v6.1h3.7ZM64.8,3.9c-1.3,1.3.7,3.8,2.2,2.3,1.7-1.7-1-3.6-2.2-2.3Z"/>
  <path class="st0" d="M77.7,3.8v6.7h9v5.3h-9v4.1c0,.2.7,1.5,1,1.7,2.7,2.5,8,.7,11.2.8v5.6l-11-.3c-2,0-3.9-1-5-2.7s-1.2-2.8-1.2-3V4.2c0,0-.3-.2-.3-.4h5.3Z"/>
  <path class="st0" d="M112.8,15.5v4.8h-21v-4.7l.4-.3c.1,0,.2.2.3.2h20.4Z"/>
  <path class="st0" d="M91.5,8.8c-1.8,1.7-5.2,1.6-7-.2-2.8-2.7-1.3-7.7,2.5-8.4,5.1-1,8.1,5.1,4.4,8.6ZM86.8,6.1c1.6,1.7,3.9-1.1,2.2-2.3s-3.4,1.1-2.2,2.3Z"/>
  <path class="st0" d="M64.1,17.1l4.8,6.8-4.1,3.3-5.2-7c.6-.5,4.1-3.3,4.5-3Z"/>
  <path class="st0" d="M48.4,17.9c.6.4,3.9,2.4,3.8,3l-4.4,5.7-3.8-3,4.4-5.7Z"/>
  <path class="st0" d="M14.2,11.8v.8c-1,.1-2-.2-3.1-.3s-2.2.8-2.3-.5h5.3Z"/>
  <rect class="st0" x="8.8" y="14.4" width="5.3" height=".5"/>
  <polygon class="st0" points="28 14.2 26.4 13.9 26.4 12 28 11.8 28 14.2"/>
</svg>