<?xml version="1.0" encoding="UTF-8"?>
<svg id="layer" xmlns="http://www.w3.org/2000/svg" width="100" height="46.6" version="1.1" viewBox="0 0 100 46.6">
  <!-- Generator: Adobe Illustrator 29.1.0, SVG Export Plug-In . SVG Version: 2.1.0 Build 142)  -->
  <defs>
    <style>
      .st0 {
        fill: #009fe8;
      }

      .st1 {
        fill: #fff;
      }

      .st2 {
        fill: #e50012;
      }
    </style>
  </defs>
  <rect class="st0" y="0" width="100" height="15"/>
  <rect class="st2" y="14.9" width="100" height="31.7"/>
  <g>
    <path class="st1" d="M42,28.2c.8,0,2,0,3.1-1.3.2-.2,0-.6-.2-.8-.3-.2-3.6-2.5-3.6-2.5l-3.6,1.8h-4.7c0-2.1.3-3.6,1-4l.2-.8s-3.8-2.4-4.3-2.6c-.5-.2-1.3-.2-1.7,0-.4.3-1.5,1.4-1.8,1.6.8.3,2.7,1.2,2.7,2.4v3.3h-6.5c-1.6,0-5.7-.6-5.7-.6l1.7,3.8s2.5-.4,4-.4h6.5v8.8c0,.8-.8,1.6-1.4,1.6s-3.2-.1-3.2-.1c0,0,2.3,1.8,2.7,1.9.4.1,1.2,3.1,1.4,3.9,1.7-.8,3.7-2.1,4.1-2.5.4-.3.8-.6.8-1.6s-.3-8.1-.4-11.9h9Z"/>
    <path class="st1" d="M16.9,37.1c0,2.1,1.7,2.5,2.6,2.5,2.5,0,4.1-2.2,4.1-5.5s-.6-2.8-1.1-3.5c-1.3,3.9-5.7,3.5-5.7,6.5Z"/>
    <path class="st1" d="M44.3,34.3c-1.6-1.7-5.1-3.3-8.4-4.1.9,1.8,3.6,7.2,5,8.3,1.4,1.1,2.8,1.2,4.1,0,1.1-1.1.3-3.1-.6-4.1Z"/>
    <path class="st1" d="M40.6,23.2c1.5,0,2.8-1.2,2.8-2.8s-1.2-2.8-2.8-2.8-2.8,1.2-2.8,2.8,1.2,2.8,2.8,2.8ZM40.6,19c.8,0,1.4.6,1.4,1.4s-.6,1.4-1.4,1.4-1.4-.6-1.4-1.4.6-1.4,1.4-1.4Z"/>
  </g>
  <g>
    <path class="st1" d="M69.1,17.6c-1.5,0-2.8,1.2-2.8,2.8s1.2,2.8,2.8,2.8,2.8-1.2,2.8-2.8-1.2-2.8-2.8-2.8ZM69.1,21.8c-.8,0-1.4-.6-1.4-1.4s.6-1.4,1.4-1.4,1.4.6,1.4,1.4-.6,1.4-1.4,1.4Z"/>
    <path class="st1" d="M66,38.2c-.9.4-2.4,1.3-2.9,1.5-.5.1-5.9,0-6.8,0s-3-1-3-2.5v-6c2.7,0,11.3-1.2,13.1-1.5,1.9-.4,2.3-1.1,2.6-1.5.3-.3,0-.6-.3-1-.4-.4-2.9-2-3.4-2.3-.5-.3-1.2-.2-1.5.1-2.8,2.3-7.4,4.1-10.5,4.9v-6.8s1.3-1.5,1.5-1.8c.2-.3,0-.8-.2-1-.3-.2-4.4-2.3-4.6-2.5-.2-.1-.8-.3-1.3,0-.4.3-1.8,1.2-2.2,1.8,1.8.6,2.5,1.4,2.5,2.5v15c0,3.9,1.6,5.8,4.8,5.8h15.3c.6-.4,1.1-1,1.2-1.7-.7-1.1-3.8-2.7-4.5-3Z"/>
  </g>
  <path class="st1" d="M71.2,29.1l1.6,3.9s2.2-.5,5-.5,17.5-.4,18.8-.4c.5-.2.9-.6,1-1.3-.5-.8-4.1-2.7-4.4-2.8-.3-.1-.7-.1-1,0-.3.2-1.7,1.3-1.7,1.3,0,0-13.6.3-14.5.3s-4.8-.4-4.8-.4Z"/>
  <path class="st1" d="M6.6,20h4.4l.8-.9,1.8,1.1c.1,0,.1.4.1.5,0,0-.4.3-.4.4v6.8c0,1.1-.8,1.9-3.2,1.9,0-.7-1.3-1.9-1.3-1.9h2.1c.1,0,.2-.2.2-.3v-2.1h-4.6c0,.8-.4,1.4-.8,2.1-1.1,1.6-2.9,2-2.9,2,.6-.8,1.1-1.5,1.4-2.4.2-.8.3-1.7.3-2.6v-3.8c0-.3,0-1-.1-1.3l2.1.6ZM11.2,24.8v-1.8h-4.6v1.8h4.6ZM11.2,22.4v-1.8h-4.6v1.8h4.6Z"/>
  <g>
    <path class="st1" d="M13.8,32l-1.6-.2v7.9c0,.2-.2.3-.4.3h-2.5s1.2,1,1.5,2.1c2.5,0,3.2-.7,3.2-1.5v-7.9c0,0,.2-.4.2-.5,0-.1-.1-.2-.4-.2Z"/>
    <g>
      <path class="st1" d="M11.4,32.6c0,0,.2-.4.2-.5,0-.1-.1-.2-.4-.2l-1.6-.2v6.3c0,.3,0,.5.4.5s1.2-.1,1.4-.2c.1,0,.1-.3.1-.5v-5.2Z"/>
      <path class="st1" d="M8.8,32.9c.2,0,.4-.4.2-.6-.2-.2-.5-.6-.6-.7-.1,0-.4-.2-.6,0-.1.1-.8.8-.8.8H2.3l.3.5h2.1v3h-2.4l.3.5h2.1v5.2c0,.3.1.5.3.5,0,0,.2,0,1.2-.2.2,0,.3-.1.3-.2v-5.3h2.2c.2,0,.4-.4.2-.6-.2-.2-.4-.6-.5-.7-.1,0-.4-.2-.6,0-.1.1-.8.8-.8.8h-.5v-3h2.2Z"/>
    </g>
  </g>
  <path class="st1" d="M30.3,1.7c.2,0,.5.2.5.3,0,.1-.1.2-.2.2.8.7,3.3,2.6,6.9,4.2-.8.4-1.7,1.2-2.1,1.5-1-.5-4.5-4.1-5.3-5.1-.5.7-1.7,1.7-2.8,2.4-.4.3-1,.7-1.4.8.2,0,.6.2.8.2h3.7l1-.9.8.7c.2.2.2.3.2.4,0,.2-.2.2-.4.2h-2v2.4h1.8l.7-.6.9.7c.1.1.1.1.2.2,0,.1,0,.1-.2.1h-3.5v3.4h3.2l1.2-1.2,1.1,1.1c.2.1.2.2.2.3,0,.1-.2.2-.4.2h-9.8c-.7,0-1.2,0-1.9,0l-.3-.7c.8,0,1.3.1,2.1.2h2.7v-3.4h-1.8c-.7,0-.5,0-1.1.1l-.3-.7c.7,0,.6.1,1.3.2h1.8v-2.4h-1.7c-.6,0-.5,0-1.1.1v-.5c-1.1.4-3.3.9-3.3.9,1.8-1.2,4.9-3.6,6.6-6.2l1.6.6Z"/>
  <g>
    <path class="st1" d="M53.6,8.2c.6-.3,1.6-.8,1.7-.9.3,0,.9,0,1-.2.1-.1,0-.2,0-.3,0-.1-1.2-1.2-1.2-1.2l-2.1,1.9c-.6-.8-1-1.7-1.1-2.6h2.7c.4,0,.5,0,.5-.3s-1.5-1.1-1.5-1.1l-1.1.9h-4.6c-.6,0-1.9-.1-1.9-.1v.7c.1,0,.6,0,.8,0h1.2c-.2.8-1.6,2.2-3.9,3.5,1.6,0,3.4-.8,4.6-1.7,0,0,.2.2.3.3-.4.5-2.2,2.2-5.1,3.1,2.6.2,5.2-1.2,6-1.9,0,.1.1.2.2.3-.5.5-2.3,2.2-5.2,3.3,2.8.1,4.9-1.2,5.8-2,0,.2.1.5.1.7,0,1-2.2,1.7-2.7,1.9.1.2.8.8,1.4,1.5,1.4-.3,2.9-1.8,2.9-3.4s-2-3.6-3.1-4.3c.7-.6,1.2-1.1,1.3-1.4h1c.2,2.2-.3,3.9,4.6,7.8.7-.4,1.1-.8,1.5-1.1-.9-.7-2.8-1.9-4.2-3.4Z"/>
    <path class="st1" d="M57.7,2.8l-1.2-1.1-.8.7h-4v-.5c.2-.2.2-.4.3-.5,0-.2-.2-.3-.5-.3l-1.6-.2c0,.2,0,.4,0,.6v.9h-4.1c0-.3-.4-.6-.4-.6-.3.6-.6.7-1.2,1-.7.3-.8.9-.8,1.3,0,.7.4.8,1,.8s1-.2,1.3-.7c.3-.4.5-.9.5-1.4,0,0,0,0,0,0h9.5l-.3,1,1.8-.5c.6,0,.8,0,.9-.2,0-.2,0-.3-.2-.5Z"/>
  </g>
  <path class="st1" d="M78.2,6c-.2-.4-.6-.1-.7,0-.1.1-.6.6-.6.6h-.6v-3.5s.3-.2.3-.3c0,0,0,0,0-.1h1c.1,0,.5,0,.5-.2s-.4-.7-.7-1c-.2-.3-.6-.1-.7,0-.1.1-.6.6-.6.6h-5.7c-.1-.2-.3-.4-.5-.6-.2-.3-.6-.1-.7,0-.1.2-.6.6-.6.6h-4.7v.6c.1,0,.7,0,.7,0h.8c-.2.9-1.4,5.4-2.3,7.2.5-.3.9-.7,1.3-1.2v3.9c0,.2.2.4.6.4s.9-.2,1-.2c.1,0,.2-.3.2-.7v-1.3h1.6v.3c0,.2.2.4.6.4s.9-.2,1-.2c.1,0,.1-.3.1-.7v-3.3s.4-.2.4-.3h1.2c-.1,2.1-.5,4.4-1.5,5.6,2.2-.7,3-3.3,3.2-5.6h1.4v5.6c0,.2.2.4.6.4s.9-.2,1-.2c.1,0,.2-.3.2-.7v-5.1h2.1c.1,0,.5,0,.5-.2s-.4-.7-.7-1ZM66.4,10.4v-3s.3-.2.3-.3h1.3v3.3h-1.6ZM69.7,6.6c-.2-.2-.5-.4-.6-.6-.2-.4-.6-.1-.7,0-.1.2-.6.6-.6.6h-1.9c1-1.7,1.6-3.4,1.8-3.9h3.6c0,.5.1,2.1,0,3.9h-1.6ZM73.1,6.6c.1-1.9,0-3.5,0-3.5,0,0,.4-.2.4-.4,0,0,0,0,0,0h1.1v3.9h-1.4Z"/>
</svg>