<?xml version="1.0" encoding="UTF-8"?>
<svg id="layer" xmlns="http://www.w3.org/2000/svg" width="56" height="56" version="1.1" viewBox="0 0 56 56">
  <!-- Generator: Adobe Illustrator 29.1.0, SVG Export Plug-In . SVG Version: 2.1.0 Build 142)  -->
  <defs>
    <style>
      .st0 {
        fill: #666;
      }

      .st1 {
        fill: #fff;
        stroke: #666;
        stroke-miterlimit: 10;
        stroke-width: 1.4px;
      }
    </style>
  </defs>
  <circle class="st1" cx="28" cy="28" r="27"/>
  <g>
    <path class="st0" d="M13.2,36.5l4.4-4.3s0,0,0,0l1.9-3.1,3.9,1-1.3,5c-.2.8.2,1.6,1,1.9.4.1.9,0,1.2-.1.4-.2.7-.6.8-1l1.7-6.3c.2-.9-.3-1.8-1.2-2.1l-4.1-1.2,1.9-5.1,1.9,2s0,0,0,0c.3.2.7.4,1.1.4s.9-.2,1.2-.5l3-2.9c.7-.7.7-1.4.3-2.1,0,0,0,0,0,0-.3-.3-.7-.5-1-.5h0c-.4,0-.8.2-1.2.6l-2.1,2-2.5-2.7c-.3-.3-.7-.6-1.1-.7l-2.5-.8s0,0,0,0c-.4,0-.9,0-1.3,0l-3.2,1c-.2,0-.5,0-.7,0l-2.6-.6c-.6-.1-1-.1-1.4.1-.3.2-.5.5-.6,1,0,0,0,0,0,0,0,.8.4,1.4,1.3,1.6l3,.7c.3,0,.7,0,1,0l2.5-1-2.8,8.6-1.1,3.4-4,3.8h0c-.3.4-.5.8-.4,1.2,0,.4.3.8.7,1.1.2.1.5.2.7.2.5,0,1.1-.3,1.6-.8ZM12.7,36c-.2.2-.5.4-.7.6-.1,0-.3,0-.4,0-.2,0-.3,0-.4-.1-.2-.2-.4-.4-.4-.6,0-.2,0-.5.2-.7l4.1-3.9s0,0,0-.1l1.2-3.5,3-9.3c0-.1,0-.2,0-.3,0,0-.1,0-.2,0s0,0-.1,0l-3.1,1.2c-.2,0-.4,0-.7,0l-3-.7c-.5-.2-.8-.4-.8-1,0-.3.2-.4.3-.5.2-.1.5-.1.9,0l2.6.6c.3,0,.7,0,1.1,0l3.2-1c.3,0,.6-.1.9,0l2.5.8c.3,0,.6.3.8.5l2.7,3c0,0,.1.1.2.1,0,0,.2,0,.2,0l2.3-2.3c.3-.3.5-.4.8-.4.2,0,.4.1.5.3.3.5.1.8-.2,1.2l-2.9,2.9c-.2.2-.5.3-.8.3s-.5,0-.7-.2l-2.2-2.4c-.1-.1-.3-.1-.5,0,0,0,0,0,0,0h0c0,0,0,0,0,.1,0,.2-1.8,4.4-2.2,5.7,0,0,0,0,0,0,0,.2,0,.3.2.4l4.5,1.3c.6.2.9.7.8,1.3l-1.7,6.3c0,.2-.2.5-.5.6-.2.1-.5.1-.7,0-.5-.2-.7-.6-.6-1.1l1.4-5.3c0-.2,0-.3-.2-.4l-5.2-1.4c-.2,0-.3,0-.4.2,0,.2,0,.3.2.4h.4c0,0-1.8,3-1.8,3l-4.4,4.3h0Z"/>
    <path class="st0" d="M24,16.3c.2,0,.3,0,.5,0,.7-.1,1.2-.5,1.6-1.1.4-.6.5-1.3.4-1.9-.2-1.2-1.3-2.1-2.5-2.1s-.3,0-.5,0c-.7.1-1.2.5-1.6,1.1-.4.6-.5,1.3-.4,2,.2,1.2,1.3,2.1,2.5,2.1ZM23.6,11.8c.1,0,.2,0,.3,0,.9,0,1.7.7,1.9,1.6,0,.5,0,1-.3,1.5-.3.4-.7.7-1.2.8-.1,0-.2,0-.3,0-.9,0-1.7-.7-1.9-1.6-.2-1.1.5-2.1,1.5-2.3Z"/>
    <path class="st0" d="M41.9,20.5l-11.2,3.9,4.2,2c-2,3.9-4.9,7.5-8.5,10.5-4,3.3-8.9,5.7-14.2,6.8v.2c2.8,0,5.5-.2,8.3-.9,2.7-.6,5.4-1.6,8-2.9,4.9-2.4,9.4-6,13-10.5l4.2,2-3.9-11.2Z"/>
  </g>
</svg>