<?xml version="1.0" encoding="UTF-8"?>
<svg id="layer" xmlns="http://www.w3.org/2000/svg" width="56" height="56" version="1.1" viewBox="0 0 56 56">
  <!-- Generator: Adobe Illustrator 29.1.0, SVG Export Plug-In . SVG Version: 2.1.0 Build 142)  -->
  <defs>
    <style>
      .st0 {
        fill: #666;
      }

      .st1 {
        fill: #fff;
        stroke: #666;
        stroke-miterlimit: 10;
        stroke-width: 1.4px;
      }
    </style>
  </defs>
  <circle class="st1" cx="28" cy="28" r="27"/>
  <g>
    <path class="st0" d="M30.4,30.2c.2,0,.3,0,.3-.3l.7-3.2-3.4.7s0,0-.1,0h0s0,0-.1,0l-2.8-2.1-.7,3.2c0,.2,0,.3.2.4l2.9.7,2.9.7Z"/>
    <path class="st0" d="M32.4,27.1c0-.3,0-.6,0-.9,0,0,0,0,0,0h.1c.3,0,.4-.6.2-.7l-3.6-2.7s0,0,0,0,0,0,0,0l-4.4.8c-.3,0-.4.5-.2.7l3.6,2.7s0,0,0,0,0,0,0,0l4.1-.8s0,0,0,0c0,.2,0,.5,0,.8-.2,0-.4.1-.5.4s0,.5.4.6.5,0,.6-.4,0-.4-.2-.5Z"/>
    <path class="st0" d="M32.4,28.6c0-.3,0-.5-.4-.6s-.5,0-.6.4l-.3,1.3.9.2.3-1.3Z"/>
    <path class="st0" d="M39.1,10.1l-9.1-2.1c-.2,0-.4,0-.4.3s0,.4.3.4l9.1,2.1c1.2.3,2,1.5,1.7,2.7l-7.3,31.3c-.3,1.2-1.5,2-2.7,1.7l-13.7-3.2c-1.2-.3-2-1.5-1.7-2.7l4.7-20c0-.2,0-.3-.2-.4l.2-.6c.2,0,.3-.1.3-.3l.5-2c0-.2,0-.3-.2-.4l.2-.6c.2,0,.3-.1.3-.3l.5-2.1c0-.2,0-.3-.2-.4l.2-1.1c.2,0,.3-.1.3-.3l.7-2.9c.3-1.2,1.5-2,2.7-1.7l3.4.8c.2,0,.4,0,.4-.3s0-.4-.3-.4l-3.4-.8c-1.6-.4-3.2.6-3.6,2.2l-.6,2.6c-.2,0-.3.2-.4.4l-.3,1.4c0,.2,0,.4.2.5l-.4,1.5c-.2,0-.3.2-.4.4l-.2,1c0,.2,0,.4.2.5l-.3,1.4c-.2,0-.3.2-.4.4l-.2,1c0,.2,0,.4.2.5l-4.6,19.7c-.4,1.6.6,3.2,2.2,3.6l13.7,3.2c1.6.4,3.2-.6,3.6-2.2l7.3-31.3c.4-1.6-.6-3.2-2.2-3.6Z"/>
    <path class="st0" d="M32,12.3c0-.3-.1-.6-.4-.7s-.6.1-.7.4.1.6.4.7.6-.1.7-.4Z"/>
    <path class="st0" d="M22.9,40.3c-.5-.1-1,.2-1.1.7s.2,1,.7,1.1l3.7.9c.5.1,1-.2,1.1-.7s-.2-1-.7-1.1l-3.7-.9ZM26.7,42.2c0,.1-.1.2-.3.2l-3.7-.9c-.1,0-.2-.1-.2-.3s.1-.2.3-.2l3.7.9c.1,0,.2.1.2.3Z"/>
    <path class="st0" d="M24.6,13.4c-.4.1-.7.4-.9.7-.2.3-.2.5-.3.8,0,0,0,.2,0,.2l-4.7,20.2c-.1.4-.1.8,0,1.1.1.4.4.7.7.9,0,0,0,0,.1,0,.1,0,.3,0,.4-.2.1-.2,0-.4-.1-.5-.2-.1-.4-.3-.5-.6,0-.2,0-.4,0-.7l4.7-20.2c0,0,0-.2,0-.3,0-.2,0-.4.2-.5.1-.2.3-.4.6-.4.2,0,.5,0,.8,0l10.2,2.4c.2,0,.3,0,.4.1.2.1.4.3.5.5.1.2.2.5.1.7l-3.4,14.7-1.4,6.1c0,.1,0,.2,0,.3,0,.2-.3.4-.5.5-.2,0-.2.3-.1.5,0,.2.3.2.5.1.4-.2.6-.5.8-.9,0-.1,0-.3.1-.4l4.8-20.8c0-.4,0-.8-.2-1.2-.2-.4-.5-.6-.9-.8-.2,0-.4-.1-.5-.2l-10.1-2.4c-.4-.1-.8,0-1.2,0Z"/>
    <path class="st0" d="M29.8,39.6c0-.2,0-.4-.3-.4l-6.6-1.5c-.2,0-.4,0-.4.3s0,.4.3.4l6.6,1.5c.2,0,.4,0,.4-.3Z"/>
  </g>
</svg>