<?xml version="1.0" encoding="UTF-8"?>
<svg id="layer" xmlns="http://www.w3.org/2000/svg" width="56" height="56" version="1.1" viewBox="0 0 56 56">
  <!-- Generator: Adobe Illustrator 29.1.0, SVG Export Plug-In . SVG Version: 2.1.0 Build 142)  -->
  <defs>
    <style>
      .st0 {
        fill: #666;
      }

      .st1 {
        fill: #fff;
        stroke: #666;
        stroke-miterlimit: 10;
        stroke-width: 1.4px;
      }
    </style>
  </defs>
  <circle class="st1" cx="28" cy="28" r="27"/>
  <g>
    <path class="st0" d="M46.9,21.1c.1,0,.3,0,.4-.2l1.2-1.4c.2-.2.1-.5,0-.7-.2-.2-.5-.1-.7,0l-1.2,1.4c-.2.2-.1.5,0,.7,0,0,.2.1.3.1Z"/>
    <path class="st0" d="M41.4,27.1c0,0,.2.1.3.1s.3,0,.4-.2l4.1-4.8c.2-.2.1-.5,0-.7-.2-.2-.5-.1-.7,0l-4.1,4.8c-.2.2-.1.5,0,.7Z"/>
    <path class="st0" d="M37.4,26.4c0,0,.2.1.3.1s.3,0,.4-.2l3.6-4.5c.2-.2.1-.5,0-.7-.2-.2-.5-.1-.7,0l-3.6,4.5c-.2.2-.1.5,0,.7Z"/>
    <path class="st0" d="M18.4,26.5c0,.1.2.2.4.2s.2,0,.3-.1c.2-.2.2-.5,0-.7l-3.6-4.5c-.2-.2-.5-.2-.7,0-.2.2-.2.5,0,.7l3.6,4.5Z"/>
    <path class="st0" d="M8.9,20.9c0,.1.2.2.4.2s.2,0,.3-.1c.2-.2.2-.5,0-.7l-1.2-1.4c-.2-.2-.5-.2-.7,0-.2.2-.2.5,0,.7l1.2,1.4Z"/>
    <path class="st0" d="M14.1,27.1c0,.1.2.2.4.2s.2,0,.3-.1c.2-.2.2-.5,0-.7l-4.1-4.8c-.2-.2-.5-.2-.7,0-.2.2-.2.5,0,.7l4.1,4.8Z"/>
    <rect class="st0" x="25.6" y="24.6" width="1.4" height="1.5" transform="translate(-6.9 10.2) rotate(-19.4)"/>
    <polygon class="st0" points="25.1 23.6 26.1 23.2 23.1 14.1 21.7 14.6 25 23.5 25.1 23.6"/>
    <rect class="st0" x="30.7" y="21.2" width="1.5" height="1.3" transform="translate(1.4 45.7) rotate(-73.3)"/>
    <path class="st0" d="M32.2,12.8c.5-.9,1.4-1.2,2.4-1,1.1.3,1.6,1.2,1.2,2.3-.2.7-.8,1.1-1.3,1.5-.2.1-.4.2-.6.3-.9.5-1.7,1-2.1,2.2l-.5,1.5,1.4.4.4-1.3c.2-.5.4-.9.8-1.2.3-.3.7-.5,1.1-.7h0c.8-.5,1.7-.9,2.2-2.4.5-1.7-.4-3.3-2.3-3.9-1.8-.5-3.4.1-4.2,1.7h0c0,0,1.5.5,1.5.5h0Z"/>
    <path class="st0" d="M49.1,32.9c-6.3-4.6-14.6-4.6-21-.2-6.4-4.6-14.9-4.5-21.2,0,0,0-.1.2-.1.3v5.5s0,0,0,0c0,0,0,0,0,0v1.9s0,0,0,0c0,0,0,0,0,0,0,0,0,0,0,0,0,0,0,0,0,0,0,0,0,0,0,0,0,0,0,0,0,0,0,0,0,0,0,0,0,0,0,0,0,0,0,0,0,0,0,0,0,0,0,0,0,0,0,0,0,0,0,0,0,0,0,0,0,0,0,0,0,0,0,0,0,0,0,0,0,0,0,0,0,0,0,0,0,0,0,0,0,0s0,0,0,0,0,0,0,0c0,0,0,0,0,0,0,0,0,0,0,0,0,0,0,0,0,0,0,0,0,0,0,0,0,0,0,0,0,0,6.1-4.4,14.3-4.4,20.5,0,.1,0,.3,0,.4,0,5.6-4,13-4.4,18.9-1,.2,0,.4,0,.5-.1,0-.2,0-.4-.1-.5-6.1-3.5-13.7-3.2-19.5.9-6.2-4.3-14.3-4.4-20.5-.2v-1c6.1-4.3,14.3-4.3,20.3.1.1,0,.3,0,.4,0,6.1-4.4,14.2-4.4,20.3-.1v1.2c0,.2.2.4.4.4s.4-.2.4-.4v-1.3h0v-5.5c0-.1,0-.2-.1-.3ZM28,38.2c-6.2-4.3-14.3-4.4-20.5-.2v-4.7c6.1-4.3,14.1-4.3,20.2,0v3.4c0,.2.2.4.4.4s.4-.2.4-.4v-3.3c6.1-4.3,14.1-4.3,20.2,0v4.5c-6.2-4.2-14.4-4.1-20.5.2Z"/>
  </g>
</svg>