<?xml version="1.0" encoding="UTF-8"?>
<svg id="layer" xmlns="http://www.w3.org/2000/svg" width="56" height="56" version="1.1" viewBox="0 0 56 56">
  <!-- Generator: Adobe Illustrator 29.1.0, SVG Export Plug-In . SVG Version: 2.1.0 Build 142)  -->
  <defs>
    <style>
      .st0 {
        fill: #666;
      }

      .st1 {
        fill: none;
        stroke: #000;
        stroke-width: .6px;
      }

      .st1, .st2 {
        stroke-miterlimit: 10;
      }

      .st2 {
        fill: #fff;
        stroke: #666;
        stroke-width: 1.4px;
      }
    </style>
  </defs>
  <circle class="st2" cx="28" cy="28" r="27"/>
  <g>
    <path class="st0" d="M15.3,29.3c.2.1.4,0,.5-.1l11.3-17.8,2.6,1.7-10.3,16.2c-.1.2,0,.4.1.5,0,0,.1,0,.2,0,.1,0,.3,0,.3-.2l10.5-16.5c.1-.2,0-.4-.1-.5l-3.3-2.1c0,0-.2,0-.3,0-.1,0-.2,0-.2.2l-11.5,18.1c-.1.2,0,.4.1.5Z"/>
    <path class="st0" d="M15.5,35l-1.3,1-1.2-.8v-.2c0-.2,0-.4-.3-.5-.2,0-.4,0-.5.3l-.6,3.1c0,.2,0,.3.2.4,0,0,.1,0,.2,0s.2,0,.2,0l3.7-2.8c.2-.1.2-.4,0-.5-.1-.2-.4-.2-.5,0ZM12.6,37.1l.2-1.1.7.4-.9.7Z"/>
    <path class="st0" d="M47.7,33.6h-3.5v-11.6h3.2c.2,0,.4-.2.4-.4s-.2-.4-.4-.4h-6.5c-.2,0-.4.2-.4.4v11.1c0,.2.2.4.4.4h2.5s0,0,0,0v.9c0,.2.2.4.4.4h3.8c.2,0,.4-.2.4-.4s-.2-.4-.4-.4ZM43.4,32.3s0,0,0,0h-2.1v-10.3h2.1v10.3Z"/>
    <path class="st0" d="M11.3,33.1c-.2-.1-.4,0-.5.1-.3.5-.9.7-1.4.4-.5-.3-.7-.8-.4-1.4l4-8.5,5.2-5c.8-.7,1.9-1,2.9-.8.2,0,.4,0,.5-.3,0-.2,0-.4-.3-.5-1.3-.3-2.7,0-3.7,1l-5.3,5.1s0,0,0,.1l-4,8.5c-.4.9-.1,1.9.8,2.4.3.2.6.2.9.2.6,0,1.3-.3,1.6-.9.1-.2,0-.4-.1-.5Z"/>
    <path class="st0" d="M40,21.5h-3.1c0,0-8.7-2.4-8.7-2.4-.2,0-.4,0-.5.3,0,.2,0,.4.3.5l8.8,2.3s0,0,0,0h3.1c0,0,0,0,0,0,.2,0,.4-.2.4-.4,0-.2-.2-.4-.4-.4Z"/>
    <path class="st0" d="M39.7,32.2h-1.6c0,0-.2,0-.2,0l-2.8,2c-.6.4-1.4.7-2.1.7h-7.2c-.4,0-.8,0-1.2-.2l-2.4-.8s0,0-.1,0h-8.1c-.9,0-1.6-.7-1.6-1.6s.7-1.6,1.6-1.6h8.3c0,0,.1,0,.2,0l4.5-2.8c.2-.1.2-.4.1-.5-.1-.2-.4-.2-.5-.1l-4.4,2.7h-8.2c-1.3,0-2.4,1.1-2.4,2.4s1.1,2.4,2.4,2.4h8.1l2.3.8c.5.1.9.2,1.4.2h7.2c.9,0,1.8-.3,2.6-.8l2.7-1.9h1.5c.2,0,.4-.2.4-.4s-.2-.4-.4-.4Z"/>
    <path class="st0" d="M17,24.9c.2-.1.2-.4,0-.6-.1-.2-.4-.2-.6,0l-1.5,1.2s0,0,0,.1l-2.2,3.7c-.1.2,0,.4.1.5,0,0,.1,0,.2,0,.1,0,.3,0,.3-.2l2.1-3.6,1.5-1.2Z"/>
  </g>
  <line class="st1" x1="8.1" y1="40.8" x2="49.9" y2="40.8"/>
</svg>