<?xml version="1.0" encoding="UTF-8"?>
<svg id="layer" xmlns="http://www.w3.org/2000/svg" width="128.4" height="37.9" version="1.1" viewBox="0 0 128.4 37.9">
  <!-- Generator: Adobe Illustrator 29.1.0, SVG Export Plug-In . SVG Version: 2.1.0 Build 142)  -->
  <defs>
    <style>
      .st0 {
        fill: #2e3192;
      }
    </style>
  </defs>
  <path class="st0" d="M11.9,36.8C5.5,36.8.3,32.3.1,26.7s1.5-4.1,3.6-4.3,4.5,1.6,4.5,4,1.5,2.3,3.6,2.3,3.6-1.2,3.6-2.3c0-2.4,2.1-4.3,4.5-4s3.6,2.3,3.6,4.3c-.2,5.6-5.4,10.1-11.7,10.1h0Z"/>
  <path class="st0" d="M23.1,16.9c0,1.9-1.6,3.5-3.5,3.5s-3.5-1.6-3.5-3.5,1.6-3.5,3.5-3.5,3.5,1.6,3.5,3.5Z"/>
  <path class="st0" d="M7.7,16.9c0,1.9-1.6,3.5-3.5,3.5s-3.5-1.6-3.5-3.5,1.6-3.5,3.5-3.5,3.5,1.6,3.5,3.5Z"/>
  <path class="st0" d="M33.4,13c0-1.1,1.2-2.1,2.6-2,1.2,0,1.8.5,2.1,1.7.2,1.1,1,4.3,2,6.9,1.4-.7,6.2-2.9,7.7-2.9,1.1,0,2.1,1.2,2,2.6,0,1.4-.4,1.6-4.1,2.8-2.7.9-6.2,2.6-8,3.7-1.8,1.2-2.5,2.2-2.5,3.5,0,1.9,1.3,2.6,4.9,2.6,1.6,0,4.1-.1,5.6-.4,1.4-.2,1.9-.3,2.4-.3,1.2,0,2,1,2,2.4,0,1.2-.6,2-1.8,2.3-1.4.2-4.6.5-7.1.4-2.6,0-4.2-.2-5.6-.5-3.2-.8-5-3-5-6.2,0-2.8,1.2-4.7,4.1-6.9.6-.5,1.1-.8,1.4-1-.8-1.8-2.7-7.3-2.7-8.7"/>
  <path class="st0" d="M68.6,15.9c1.2,0,1.8.7,1.8,2,0,1.2-.5,1.9-1.6,2-.8.2-2.6.3-3.8.3-.1,1-.2,2.1-.4,3.1.6,0,3.6-.3,3.9-.3,1.1,0,1.7.8,1.7,2,0,1.7-.7,2.3-5.3,2.4-.5,0-.6,0-.8,0,0,.4,0,.7,0,1.2,0,1.7,0,4.2,4,4.2,3,0,5.1-1.5,5.1-3.8,0-1.1-.2-1.5-.9-2.9-.2-.4-.3-.8-.3-1.1,0-1.1,1.1-2,2.4-2,1.1,0,1.7.5,2.4,2.4.5,1.2.8,2.6.8,3.9,0,4.8-3.8,7.7-9.8,7.7-2.8,0-4.6-.6-6.1-2.1-1.2-1.2-1.9-3-1.9-5.1,0-.5,0-1.4.1-2.3-2.5,0-4.2-.2-4.7-.5-.5-.3-.9-.9-.9-1.8,0-1.4.7-2.1,2-2.1.6,0,3.5.2,4.1.2.1-1.1.3-2.1.4-3.2-4.5,0-5.5-.3-5.5-2.2,0-1.3.8-2.1,2.1-2.1.6,0,3.2.2,3.8.2,0-.8,0-1.8.2-2.7,0-1.7.7-2.4,2.3-2.4.6,0,2.3,0,2.3,2.1,0,.7,0,1.7-.3,2.8,1,0,2.1-.2,3-.2"/>
  <path class="st0" d="M89.2,13c.2-1,.8-1.4,2-1.4,1.4,0,2.4.7,2.4,1.6,0,.7,0,1-.8,4.3.5,0,.9,0,1.3,0,2.1,0,6,.1,6,6.1,0,2.6-.5,6.2-1.4,8.9-.8,2.9-2.2,4.3-4.3,4.3-.5,0-5.2-.3-5.2-2.8,0-1.3.9-2.3,2-2.3.3,0,.6,0,1.4.5.4.2.8.3,1.1.3.5,0,.7-.4,1.1-2,.5-1.9,1-5.1,1-6.5,0-1.5-.7-2.3-2.2-2.4-.5,0-1.1,0-1.9.2-1.5,5.2-2.5,8.1-4.3,12.2-.7,1.8-1.4,2.4-2.4,2.4-1.4,0-2.5-1-2.5-2.2,0-.6.2-1,.8-2.1,1.1-1.9,2.7-5.7,3.9-9.6-.4,0-2.3.4-2.7.4-1.1,0-1.7-.8-1.7-2.2,0-1.9.8-2.1,5.5-2.6.3-1.5.6-3.3.9-4.8M104.7,17.6c1.7,2.7,4,6.9,4,8.5,0,1.3-1,2.3-2.4,2.3-1,0-1.5-.4-1.9-1.6-.9-2.3-2-4.5-3.3-6.4-1.5-2.3-1.6-2.5-1.6-3,0-1.1,1.2-2.1,2.5-2.1.9,0,1.3.4,2.6,2.3M107,14.7c1,1.3,1.4,2,1.4,2.5,0,.7-.8,1.3-1.6,1.3s-.6-.1-.8-.5c-.5-.8-1-1.5-1.6-2.3-.2-.3-.3-.5-.3-.8,0-.7.7-1.3,1.5-1.3.5,0,.8.2,1.5,1.1M108.7,12c1.1,0,2.7,2.8,2.7,3.5s-.7,1.3-1.5,1.3-.6-.1-1.1-.9c-.3-.4-.5-.8-1.3-1.8-.2-.3-.3-.5-.3-.8,0-.7.7-1.4,1.5-1.3Z"/>
  <path class="st0" d="M127.7,13.9c0,1.1-.7,2.1-4.2,5.7-1.4,1.4-2.4,2.5-3.2,3.2-1.2,1.1-1.2,1.1-1.2,1.4s.1.4,1.3,1.4c1.6,1.5,2.7,2.6,3.8,3.7.9.9,1.7,1.9,2.6,2.8,1.2,1.3,1.8,2.2,1.8,3,0,1.4-1.2,2.5-2.7,2.5-.8,0-1.3-.3-1.8-.9-2.5-3.2-4.1-5.3-8.8-9.7-1.3-1.2-1.6-1.8-1.6-2.8,0-.9.3-1.5,1.4-2.5.1,0,4.5-4.1,7.4-8.3,1.2-1.7,1.6-2,2.6-2,1.5,0,2.7,1,2.7,2.4"/>
  <path class="st0" d="M44.8,2.3h-4c0,0-.2,0-.2,0,0,0,0-.1,0-.2,0-.2.1-.3.3-.3h4.4V.5c0-.2.1-.3.3-.3s.2,0,.2,0c0,0,0,.1,0,.3v1.1h1.6c.2,0,.3.1.3.3s-.1.3-.3.3h-1.6v4.5c0,.3,0,.6-.2.7-.1.2-.3.2-.5.2s-.5,0-.7-.1c-.3,0-.4-.2-.4-.4s0-.2,0-.2c0,0,.1-.1.2-.1s.2,0,.3,0c.2,0,.3,0,.3,0s.1,0,.1,0c0,0,0-.1,0-.3v-3.8c-.7,1.1-1.6,1.9-2.5,2.6-.9.7-1.5,1-1.8,1s-.2,0-.2,0c0,0,0-.1,0-.2,0-.2.1-.3.3-.4.9-.5,1.7-1.1,2.3-1.6.3-.3.6-.6.9-.9.3-.3.6-.7.8-1.1"/>
  <path class="st0" d="M45.1,7.8c-.2,0-.5-.1-.8-.2-.3,0-.5-.3-.5-.5s0-.2.1-.3c0-.1.2-.2.3-.2s.2,0,.4,0c.2,0,.4,0,.4,0l-.2-.2v-3.4s-1.3,1.7-2.2,2.3c-1.3.9-1.7,1-1.9,1s-.3,0-.3-.1c0,0,0-.2,0-.3,0-.2.1-.4.4-.5.9-.5,1.7-1,2.3-1.6.3-.3.6-.6.9-.9.2-.3.5-.6.7-.9h-3.9c-.1,0-.2,0-.3,0,0,0-.1-.2-.1-.3,0-.3.2-.4.4-.6h4.1v-.8c.2-.3.3-.4.6-.4s.3,0,.3.1c0,0,.1.2,0,.3v.8h1.6c.3.2.4.4.4.6s-.4.3-.4.3h-1.6v4.4c0,.4,0,.6-.1.8-.1.2-.3.3-.6.3h0ZM44.3,6.9c0,0-.1,0-.2,0,0,0,0,.1,0,.2,0,.1.1.2.3.3.5.2.9.2,1.1,0,.1-.1,0-.7,0-.7V2h1.9c.2.2.2.1.2,0s0-.2-.2-.3h-1.9V.5s.2-.2.1-.2c0,0,0,0-.2,0-.2,0-.2,0-.3.2v1.1h-4.4c-.1,0-.2.2-.2.3s0,.1,0,.2c0,0,0,0,.1-.1h4.3v.4c-.4.4-.7.7-.9,1-.3.3-.6.6-.9.9-.6.6-1.4,1.1-2.3,1.6-.2.1-.3.2-.3.3s0,0,0,.1c0,0,0,0,.1,0,.2,0,.6-.2,1.8-1,.9-.6,1.8-1.5,2.5-2.5v-.3c.1,0,.1,4,.1,4,0,.1,0,.2,0,.3,0,0-.2.2-.6,0-.2,0-.3,0-.3,0h0Z"/>
  <path class="st0" d="M57.5,2.3c0,.1,0,.3-.2.7-.1.3-.3.6-.4.9-.1.3-.3.5-.4.8-.3.5-.7.9-1.2,1.3-.5.4-.9.7-1.4,1-.5.2-1.1.4-1.7.6-.7.2-1.1.2-1.3.2s-.4-.1-.4-.3.1-.3.4-.3c1.2-.1,2.2-.4,3-.9.8-.5,1.5-1.1,2-1.8.5-.7.8-1.4,1-2,0-.3.2-.4.4-.4s.2,0,.3.1c0,0,0,.2,0,.3M54,2.7c0,0,0,.1,0,.2,0,0,0,0-.2.1,0,0-.1,0-.2,0,0,0-.1,0-.2-.1-.9-.7-1.8-1.2-2.6-1.7-.1,0-.2-.2-.2-.3s0-.1,0-.2c0,0,0,0,.1,0,0,0,.1,0,.2,0s.1,0,.1,0c.1,0,.3.1.4.2.2,0,.4.2.6.3.2,0,.3.2.5.3.2.1.3.2.5.3.2.1.3.2.5.3.1,0,.2.2.3.2,0,0,0,0,.1.1,0,0,0,0,0,.1Z"/>
  <path class="st0" d="M50.7,7.9c-.3,0-.5-.2-.5-.4s0-.4.5-.5c1.1-.1,2.1-.4,3-.9.8-.5,1.5-1.1,2-1.8.5-.7.8-1.4,1-2,0-.3.2-.5.5-.5s.3,0,.3.1c0,0,.1.2.1.3s0,.2-.2.7c-.1.3-.3.6-.4.9-.1.3-.3.5-.5.8-.3.5-.7.9-1.2,1.4-.5.4-1,.8-1.5,1-.5.3-1.1.5-1.8.6-.7.2-1.1.2-1.4.2h0ZM57.2,2.1s-.2,0-.3.3c-.2.6-.5,1.3-1,2-.5.7-1.2,1.4-2,1.9-.9.5-1.9.8-3.1.9-.3,0-.3.1-.3.2s0,.2.2.2.7,0,1.3-.2c.6-.1,1.2-.3,1.7-.6.5-.2,1-.6,1.4-1,.5-.4.9-.9,1.2-1.3.2-.2.3-.5.4-.8.1-.3.3-.6.4-.9.2-.4.2-.6.2-.6,0,0,0-.1,0-.2,0,0,0,0-.2,0h0ZM53.6,3.3h0c0,0-.2,0-.3-.1-.9-.7-1.8-1.2-2.5-1.6-.2-.1-.3-.3-.3-.4s0-.2,0-.2c0,0,.1,0,.2-.1.1,0,.3,0,.4,0,.1,0,.2.1.4.2.2,0,.4.2.6.3.2,0,.3.2.5.3.2.1.3.2.5.3l.5.3c.1,0,.2.2.3.2,0,0,.1.1.1.2,0,0,0,.1,0,.2s0,.2,0,.2c0,0-.1.1-.2.1,0,0-.1,0-.2,0h0ZM51,.8s0,0-.1,0c0,0,0,0,0,0,0,0,0,0,0,0s0,.1.2.2c.8.4,1.7,1,2.6,1.7,0,0,.1,0,.2,0,0,0,.1,0,.1,0,0,0,0,0,.1,0,0,0,0,0,0-.1s0,0,0,0c0,0,0,0-.1-.1,0,0-.2-.1-.3-.2l-.5-.3c-.2-.1-.4-.2-.5-.3-.2-.1-.3-.2-.5-.3-.2-.1-.4-.2-.6-.3-.2,0-.3-.1-.4-.2,0,0,0,0,0,0h0Z"/>
  <path class="st0" d="M67,2.6c.6,0,.9.2.9.7s0,.8-.3,1.3c-.2.6-.5,1.1-1,1.7-.5.6-1.1,1-1.9,1.3-.8.3-1.5.5-2.3.5s-.3,0-.4,0c0,0,0-.1,0-.2,0-.2.2-.3.5-.3,1.2,0,2.1-.3,2.8-.8.7-.5,1.2-1,1.5-1.7.3-.7.4-1.1.4-1.4s-.1-.3-.3-.3h-6c0,0-.2,0-.2,0,0,0,0-.1,0-.2,0-.2.1-.3.3-.3h6.2ZM67.2.3c.2,0,.3.1.3.3s-.1.3-.3.3h-6.1c-.2,0-.3-.1-.3-.3s.1-.3.3-.3h6.1Z"/>
  <path class="st0" d="M62.4,8c-.2,0-.3,0-.4,0,0,0-.1-.2-.1-.3s0-.4.5-.4c1.1,0,2-.3,2.7-.8.7-.4,1.1-1,1.4-1.6.3-.6.4-1.1.4-1.3s0-.1-.2-.2h-5.8c-.1,0-.2,0-.3,0,0,0-.1-.2-.1-.3,0-.3.2-.4.4-.6h5.9c.8.2.9.6.9,1s0,.7-.3,1.3c-.2.6-.5,1.1-1,1.7-.5.5-1.1,1-1.8,1.3-.7.3-1.5.5-2.3.5h0ZM60.9,2.7c-.1,0-.2,0-.2.2s0,.1,0,.2c0,0,0,0,.1-.1h5.8c.3.2.4.3.4.5s-.1.8-.4,1.4c-.3.6-.8,1.2-1.5,1.7-.7.5-1.6.7-2.8.8-.4,0-.4.2-.4.2s0,.1,0,.1c0,0,0,0,.3,0,.7,0,1.5-.1,2.2-.4.7-.3,1.3-.7,1.8-1.2.5-.5.8-1.1.9-1.6.2-.5.3-1,.3-1.2s0-.6-.7-.7h-5.9,0ZM67,1.3h-5.6c-.3,0-.4-.2-.4-.5s.1-.4.4-.5h5.6c.3,0,.4.2.4.5s-.1.4-.4.5ZM61.4.7c-.1,0-.2,0-.2.2s0,.2.2.2h5.6c.1,0,.2,0,.2-.2s0-.2-.2-.2h-5.6Z"/>
  <path class="st0" d="M74.2,3.9c-.5.4-1.1.8-1.8,1.2-.7.4-1.1.6-1.3.6s-.2,0-.2-.1,0-.1,0-.2c0-.2.1-.3.4-.4,2.1-.9,3.7-2.3,4.9-4.2.1-.2.2-.3.4-.3s.1,0,.2,0c0,0,.1.1.1.2s0,.1,0,.2c0,0,0,.1-.1.2,0,.1-.1.2-.2.4-.2.3-.4.6-.7.9-.3.3-.5.6-.8.9v4.3c0,.3-.1.5-.3.5s-.2,0-.3-.1c0,0,0-.2,0-.3v-3.8Z"/>
  <path class="st0" d="M74.6,8.6c-.2,0-.3,0-.4-.2,0-.1,0-.2,0-.4v-4c-.5.4-1.2.8-1.9,1.2-1.3.7-1.4.6-1.5.6s-.2,0-.2-.1c0-.1-.1-.2-.1-.3,0-.2.2-.4.5-.5,2.3-1,4.1-2.5,5.4-4.6.2-.4.5-.5.8-.3.1,0,.2.2.2.3s0,.2,0,.3c0,0,0,.1-.1.2,0,.1-.2.3-.3.4-.2.4-.5.7-.8,1.1-.3.3-.6.7-.9,1v4.8c0,.6-.3.6-.5.6h0ZM74.5,3.6v4.1c-.2.1-.2.2-.1.3,0,0,.1,0,.2,0s.2,0,.3-.4V3.2h0c.3-.3.6-.6.8-.9.3-.3.5-.6.7-1,.1-.2.2-.3.3-.4,0-.1.1-.2.1-.2,0,0,0-.1,0-.2s0,0,0,0c0,0-.1,0-.2,0,0,0-.2,0-.3.3-1.2,2-2.9,3.4-5.1,4.3-.2,0-.3.2-.3.3s0,0,0,.2c0,0,0,0,.1,0,0,0,.4,0,1.3-.6.7-.4,1.3-.8,1.9-1.2l.2-.2h.2Z"/>
  <path class="st0" d="M87.4,2.3c0,.1,0,.3-.2.7-.1.3-.3.6-.4.9-.1.3-.3.5-.4.8-.3.5-.7.9-1.2,1.3-.5.4-.9.7-1.4,1-.5.2-1.1.4-1.7.6-.7.2-1.1.2-1.3.2s-.4-.1-.4-.3.1-.3.4-.3c1.2-.1,2.2-.4,3-.9.8-.5,1.5-1.1,2-1.8.5-.7.8-1.4,1-2,0-.3.2-.4.4-.4s.2,0,.3.1c0,0,0,.2,0,.3M83.9,2.7c0,0,0,.1,0,.2,0,0,0,0-.2.1,0,0-.1,0-.2,0,0,0-.1,0-.2-.1-.9-.7-1.8-1.2-2.6-1.7-.1,0-.2-.2-.2-.3s0-.1,0-.2c0,0,0,0,.1,0,0,0,.1,0,.2,0s.1,0,.1,0c.1,0,.3.1.4.2.2,0,.4.2.6.3.2,0,.3.2.5.3.2.1.3.2.5.3.2.1.3.2.5.3.1,0,.2.2.3.2,0,0,0,0,.1.1,0,0,0,0,0,.1Z"/>
  <path class="st0" d="M80.7,7.9c-.3,0-.5-.2-.5-.4s0-.4.5-.5c1.1-.1,2.1-.4,3-.9.8-.5,1.5-1.1,2-1.8.5-.7.8-1.4,1-2,0-.3.2-.5.5-.5s.3,0,.3.1c0,0,.1.2.1.3s0,.2-.2.7c-.1.3-.3.6-.4.9-.1.3-.3.5-.5.8-.3.5-.7.9-1.2,1.4-.5.4-1,.8-1.5,1-.5.3-1.1.4-1.8.6-.7.2-1.1.2-1.4.2h0ZM87.1,2.1s-.2,0-.3.3c-.2.6-.5,1.3-1,2-.5.7-1.2,1.4-2,1.9-.9.5-1.9.8-3.1.9-.3,0-.3.1-.3.2s0,.2.2.2.7,0,1.3-.2c.6-.1,1.2-.3,1.7-.6.5-.2,1-.6,1.4-1,.5-.4.9-.9,1.2-1.3.2-.2.3-.5.4-.8.1-.3.3-.6.4-.9.2-.4.2-.6.2-.6,0,0,0-.1,0-.2,0,0,0,0-.2,0h0ZM83.5,3.3h0c0,0-.2,0-.3-.1-.9-.7-1.8-1.2-2.5-1.6-.2-.1-.3-.3-.3-.4s0-.2,0-.2c0,0,.1,0,.2-.1.1,0,.3,0,.4,0,.1,0,.2.1.4.2.2,0,.4.2.6.3.2,0,.3.2.5.3.2.1.3.2.5.3l.5.3c.1,0,.2.2.3.2,0,0,.1.1.1.2,0,0,0,.1,0,.2s0,.2,0,.2c0,0-.1.1-.2.1,0,0-.1,0-.2,0h0ZM80.9.8s0,0-.1,0c0,0,0,0,0,0,0,0,0,0,0,0s0,.1.2.2c.8.4,1.7,1,2.6,1.7,0,0,.1,0,.2,0,0,0,.1,0,.1,0,0,0,0,0,.1,0,0,0,0,0,0-.1s0,0,0,0c0,0,0,0-.1-.1,0,0-.2-.1-.3-.2l-.5-.3c-.2-.1-.4-.2-.5-.3-.2-.1-.3-.2-.5-.3-.2-.1-.4-.2-.6-.3-.2,0-.3-.1-.4-.2,0,0,0,0,0,0h0Z"/>
  <path class="st0" d="M94.1,1c0-.1.1-.2.2-.3,0-.1,0-.2.1-.3,0-.1,0-.2.2-.3,0,0,.2,0,.3,0,.1,0,.2,0,.2.2,0,0,0,.2,0,.3,0,0,0,.1,0,.2,0,0,0,.2-.1.2h2.5c.3,0,.4,0,.5.2,0,.1.1.3.1.6v5.4c0,.3,0,.5-.1.6,0,.1-.3.2-.5.2h-5.2c-.3,0-.4,0-.5-.2,0-.1-.1-.3-.1-.6V1.7c0-.3,0-.4.1-.6,0-.1.3-.2.5-.2h2ZM92.1,2.9h5.2v-1.2c0,0,0-.1-.1-.1h-5c0,0,0,0-.1,0,0,0,0,0,0,.1v1.2h0ZM92.1,4.9h5.2v-1.3h-5.2v1.3ZM97,7.1c.2,0,0-.2,0-.2v-1.1h-4.9v1.2c0,0,0,0,0,.1,0,0,0,0,0,0h4.8Z"/>
  <path class="st0" d="M97,7.8h-5.1c-.3,0-.5,0-.6-.2-.1-.1-.2-.4-.2-.6V1.5c0-.3,0-.5.2-.6.1-.1.3-.2.6-.2h2s0,0,.1,0c0-.1,0-.2.1-.3,0-.2.1-.3.2-.3,0,0,.2,0,.4,0,.2,0,.3.1.3.2,0,0,0,.2,0,.4,0,0,0,.2,0,.2,0,0,0,0,0,.2h2.3c.3,0,.5,0,.6.1.1.1.2.3.1.6v5.3c0,.3,0,.5-.1.6-.1.1-.8.2-.8.2h0ZM92.1,1.1c-.3,0-.5,0-.6.1,0,0,0,.5,0,.5v5.2c0,.2,0,.4.1.5,0,0,.2.1.5.1h5.3c.2,0,.4,0,.5-.1,0,0,.1-.3.1-.5V1.6c0-.2,0-.4-.1-.5,0,0-.2-.1-.5-.1h-2.8,0c0,0,0-.2.1-.3,0,0,0-.1,0-.2,0-.2,0-.2,0-.3,0,0,0,0-.1,0-.1,0-.2,0-.2,0,0,0,0,0-.1.2,0,0,0,.2-.1.3,0,.1-.1.2-.2.4h0c0,0-1.9,0-1.9,0h0ZM97.1,7.2h-5.1c0,0-.1,0-.2,0,0,0,0-.1,0-.2v-1.4h5.5v1.4c0,.2-.1.3-.2.3h0ZM92.1,7.2h4.9v-1.3h-4.9v1.3h0ZM97.3,5.2h-5.5v-1.6h5.5v1.6ZM92.1,4.9h4.9v-1.3h-4.9v1.3ZM97.3,3.3h-5.5v-1.4c0,0,0-.1,0-.2,0,0,.1,0,.2,0h5.1c.1,0,.2.1.2.3v1.4ZM92,2.9h4.9v-1.1h0c0,.1-4.9.1-4.9.1h0v-.2,1.1h0Z"/>
  <path class="st0" d="M104.4,3.8c-.2.1-.2.2-.2.3,0,0-.1,0-.2,0s-.2,0-.2,0c0,0,0-.1,0-.3V1.1c-.1,0-.1,0-.1-.1,0,0,0,0-.1,0h-2.3c-.2,0-.3-.1-.3-.3s0-.2,0-.2c0,0,.1,0,.2-.1h2.4c.3,0,.4.1.5.2.1,0,.2.3.3.5v2.8ZM103.5,2.5c0,0,0,.1,0,.2,0,0,0,.1-.2.2-.1.1-.3.2-.4.3-.1,0-.3.2-.4.3-.1,0-.3.2-.4.3-.2,0-.3.2-.5.3-.1,0-.2.1-.3.1s-.1,0-.2-.1c0,0,0-.2,0-.3,0,0,.1-.1.3-.2.3-.2.6-.4.9-.6.3-.2.5-.4.8-.6.2-.2.4-.2.5,0M103.1,2.3c-.1.2-.3.2-.5,0-.1,0-.3-.2-.5-.3-.2-.1-.4-.2-.6-.3-.1,0-.2-.1-.2-.2,0,0,0-.1,0-.2,0,0,.1-.1.2-.1,0,0,.2,0,.3,0,.2.1.4.2.6.3.2.1.4.2.5.3,0,0,.2.1.2.2,0,0,0,.1,0,.2ZM107.1,4.3c.2,0,.3,0,.4,0,.1,0,.2,0,.2.1,0,0,0,.1.1.2,0,.1.2.4.2.4v2.2c0,.2,0,.3,0,.4,0,.1,0,.2-.1.2,0,0-.1.1-.2.1-.1,0-.2,0-.4,0h-4.6c-.2,0-.3,0-.4,0-.1,0-.2,0-.2-.1,0,0,0-.1-.1-.2,0-.1,0-.2,0-.4v-2.2s-.1-.3,0-.4c0-.1,0-.2.1-.2,0,0,.1-.1.2-.1,0,0,.2,0,.4-.1h1.7c0,0,.1-.2.2-.3,0-.1.1-.2.2-.2,0,0,.2,0,.3,0,.2,0,.2.2.1.5,0,0,0,.1,0,.4h2.1v-.2ZM107.1,5.1c0-.1,0-.2-.1-.2h-4.7c0,0-.1,0-.1.2v.8h4.9v-.8ZM107.1,6.5h-4.9v.8c0,.1,0,.2.1.2h4.7c0,0,.1,0,.1-.2v-.8ZM108,3.9c0,.1,0,.2,0,.3,0,0-.1,0-.2,0s-.2,0-.2,0c0,0,0-.1-.2-.3V1.1c.1,0,.1-.1.1-.1,0,0,0,0-.1,0h-2.6c-.2,0-.3-.1-.3-.3s0-.2,0-.2c0,0,.1,0,.2-.1h2.6c.3,0,.4,0,.5.2,0,0,.1.3,0,.5v2.8ZM106.6,2.4c0,0-.1.1-.2.1,0,0-.2,0-.3-.2-.1-.1-.3-.2-.4-.3-.2-.1-.4-.2-.6-.4-.1,0-.2-.1-.2-.2,0,0,0-.1,0-.2,0,0,.1-.1.2-.1s.2,0,.3.1c.2.1.4.3.6.4.2.1.3.3.5.4,0,0,.1.1.2.2,0,0,0,.1,0,.2M107.3,2.3c0,0,0,.1,0,.2,0,0,0,.1-.2.2-.1.1-.3.2-.4.3-.1,0-.2.2-.3.2s-.2.1-.4.2c-.1,0-.3.2-.5.3-.1,0-.2.1-.3.1s-.1,0-.2-.2c0,0,0-.2,0-.2,0,0,.1-.1.3-.2.2,0,.3-.2.5-.3.1,0,.3-.1.4-.2.1,0,.2-.1.3-.2.1,0,.2-.2.4-.3,0,0,.2-.1.3-.1,0,0,.1,0,.2.1"/>
  <path class="st0" d="M107.1,8.2h-4.7c-.2,0-.3,0-.4,0-.1,0-.2,0-.3-.2,0,0-.1-.2-.1-.3,0-.1,0-.3,0-.4v-2.1c0-.2,0-.3,0-.4,0-.1,0-.2.1-.3,0,0,.2-.1.3-.2.1,0,.3,0,.4,0h1.3s0,0,0,0c0,0,0-.2,0-.3v-1s0,0,0,.1c-.1.1-.3.2-.4.3-.1,0-.3.2-.4.3-.1,0-.3.2-.4.3-.2,0-.3.2-.5.3-.2,0-.3.1-.4.1-.1,0-.2,0-.3-.2,0-.2,0-.3,0-.4,0,0,.1-.2.3-.3.3-.2.6-.4.9-.6.2-.1.4-.3.6-.4,0,0-.2,0-.3-.1-.1,0-.3-.2-.5-.3-.2-.1-.4-.2-.6-.3-.1,0-.2-.1-.3-.2,0,0,0-.2,0-.3,0,0,0,0,.1-.2h-.2c-.3,0-.4,0-.4-.3s0-.2,0-.3c0,0,.3,0,.3,0h2.4s.5,0,.6.1c.1.1.2.3.3.6v2.7c0,0,0-.1,0-.1,0,0,.2,0,.4,0,0,0,0,0,0,0,0,0,0-.1,0-.2,0,0,.1-.2.3-.3.2,0,.3-.2.5-.3.1,0,.3-.1.4-.2,0,0,.2-.1.3-.2,0,0-.2,0-.3-.2-.1-.1-.3-.2-.4-.3-.2-.1-.3-.2-.6-.4-.1,0-.2-.2-.2-.3s0-.2,0-.3c0,0,0-.2,0-.2h-.2s-.4,0-.4-.3,0-.2,0-.3c0,0,.2-.1.3,0h2.6c.3,0,.5,0,.6.1.1.1.2.3,0,.6v2.8c.2.2.2.3,0,.3,0,0-.2.1-.3.1s-.3,0-.3-.1c0,0-.1-.3-.1-.3v-1.1c0,0-.1.1-.2.2-.1.1-.3.2-.4.3-.1,0-.2.2-.3.2-.1,0-.2.1-.4.2s-.3.2-.5.3c-.1,0-.3.1-.4.1,0,0,0,0-.1,0,0,0,0,.1,0,.2h0s2,0,2,0c.2,0,.3,0,.4,0,.1,0,.2,0,.3.1,0,0,.1.2.2.3,0,.1,0,.3,0,.4v2.1c0,.2,0,.3,0,.4,0,.1,0,.2-.1.3,0,0-.2.1-.3.2-.1,0-.3,0-.4,0h0ZM102.5,4.4c-.2,0-.3,0-.4,0,0,0-.1,0-.2,0,0,0,0,.1,0,.2,0,.1,0,.4,0,.4v2c0,.1,0,.3,0,.4,0,0,0,.1,0,.2,0,0,0,0,.2,0,0,0,.2,0,.4,0h4.5c.1,0,.3,0,.4,0,0,0,.1,0,.2,0,0,0,0-.1,0-.2,0,0,0-.2,0-.4v-2s0-.3,0-.4c0,0,0-.1,0-.2,0,0-.1,0-.2,0,0,0-.2,0-.4-.2h-2.3.1s0,0,0,0c0-.3,0-.3,0-.3,0,0-.2,0-.2,0,0,0,0,0-.1.2,0,.2-.1.3-.2.4v.2h-1.8ZM104.8.7c0-.2-.1-.1-.1-.1,0,0,0,0,0,.1,0,.1,0,.2.2.3h2.6c0-.1.1-.1.2,0,0,0,0,.1.1.2v2.8c0,.1,0,.2,0,.2,0,0,0,0,.1,0s.1,0,.1,0c0,0,0,0,0-.2V1c0-.2,0-.3-.1-.4,0,0-.2-.1-.5,0h-2.6ZM103.3,2.6s-.1,0-.2.1c-.3.2-.5.4-.8.6-.3.2-.6.4-.9.6-.2,0-.2.2-.2.2,0,0,0,0,0,.1,0,0,0,0,.1,0s0,0,.3,0c.2-.1.4-.2.5-.3.2,0,.3-.2.4-.3.1,0,.3-.2.4-.3.1,0,.3-.2.4-.3.2-.1.2-.2.2-.2,0,0,0,0,0-.1,0,0,0,0,0,0h0ZM101.2.7c0-.2-.1-.2-.1-.1,0,0,0,0,0,.1,0,.1,0,.2.2.3h2.3c0-.1.2-.1.2,0,0,0,0,0,0,.2v2.7c0,0,0,.1,0,.2,0,0,0,0,.2,0s.1,0,.1,0c0,0,0,0,0-.2V1c0-.2,0-.3,0-.4,0,0-.2-.1-.5,0h-2.4,0ZM107.1,2.3c0,0-.1,0-.2,0-.1,0-.3.2-.4.3-.1,0-.2.1-.3.2-.1,0-.2.1-.4.2-.1,0-.3.2-.5.3-.1,0-.2.1-.2.2,0,0,0,0,0,.1,0,0,0,.1.1.1s0,0,.2,0c.2-.1.4-.2.5-.3.1,0,.3-.2.4-.2.1,0,.2-.1.3-.2.1,0,.2-.2.4-.3.2-.1.2-.2.2-.2,0,0,0,0,0-.1,0,0,0,0-.1,0h0ZM103.5,2.3s0,0,0,0v-1.3h0s0,0,0,0h-1.8s0,0,0,0c.2.1.4.2.6.3.2.1.4.2.5.4.1,0,.2.2.2.2,0,0,0,.1,0,.2,0,0,0,0,.1,0,0,0,.2,0,.2.1h0ZM105.2,1.2s0,0,0,0c0,0,0,0,0,.1,0,0,0,0,.1.1.2.1.4.3.6.4.2.1.3.2.5.4.1.1.2.1.2.1,0,0,0,0,.1,0,0,0,0,0,0-.1,0,0,0,0-.1-.2-.2-.1-.3-.3-.5-.4-.2-.1-.4-.2-.6-.4-.1,0-.2-.1-.2,0ZM107.7,2.3c-.3,0-.3,0-.3,0v-1.2h0c0-.1,0-.1,0-.1h-1.9c0,0,0,.1,0,.1.2.1.4.3.6.4.2.1.4.3.5.4.1,0,.2.2.2.3,0,0,0,0,0,0,0,0,.2,0,.3,0s.2,0,.6.2h0ZM101.5,1.2s0,0,0,0c0,0,0,0,0,.1,0,0,0,0,.2.1.2.1.4.2.6.3.2.1.3.2.5.3.1,0,.2.1.3.1,0,0,0,0,0,0,0,0,0-.1,0-.1,0,0,0,0-.1-.1-.2-.1-.3-.2-.5-.3-.2-.1-.4-.2-.6-.3-.1,0-.2,0-.2,0h0ZM107.1,7.5h-4.6c-.1,0-.2,0-.3-.3v-1h5.2v1c0,.2-.2.3-.3.3ZM102.5,6.5v.7s0,0,0,0h4.6c0,.1,0,0,0,0v-.7h-4.6ZM107.4,5.9h-5.2v-.8c0-.2.2-.3.3-.2h4.6c.1,0,.2,0,.3.2v.8ZM102.5,5.9h4.6v-.6s0,0,0,0h-4.6v.7h0Z"/>
  <path class="st0" d="M114.5,7.2v-1h-2.7c-.1,0-.2,0-.3,0s-.1-.1-.1-.2,0-.2,0-.2c0,0,.2,0,.3,0h2.8v-.7c0-.2.1-.4.3-.4s.2,0,.2,0c0,0,0,.2,0,.3v.7h2.7c.1,0,.2,0,.3,0,0,0,.1.1.1.2s0,.2-.1.2c0,0-.2,0-.3,0h-2.7v1h3.3c.2,0,.4.1.4.3s0,.2-.1.2c0,0-.2,0-.3,0h-7.2c-.1,0-.2,0-.3,0,0,0,0-.1,0-.2,0-.2.1-.3.4-.3h3.2ZM114.2.8c.1,0,.1-.1,0-.2,0,0,0-.1,0-.1,0-.1,0-.2,0-.3,0,0,.1-.1.2-.2.1,0,.2,0,.3,0,0,0,.1.1.2.2,0,0,0,.1.1.2,0,.1.1.2.1.2h2.6c.6,0,.9.3.9.9s0,.3,0,.4,0,.3-.1.5c-.1.3-.3.4-.5.3-.1,0-.2-.1-.2-.2,0,0,0-.2,0-.3,0-.2.1-.3.1-.4,0,0,0-.2,0-.2,0-.2-.1-.3-.3-.3h-5.8c0,0-.1,0-.1,0,0,0,0,0,0,.2v.7c0,.2-.1.4-.3.4s-.2,0-.2,0c0,0,0-.1,0-.3v-.5s0-.6.2-.7c.1-.1.3-.2.6,0h2.4v-.2ZM116.2,3.3c0,0-.1-.2-.1-.3s0-.2.1-.2c0,0,.2-.1.3,0,0,0,.2,0,.3.2.1.1.3.3.4.4.1.1.2.2.3.4s.2.2.3.4.2.3.3.4c.1.1.2.2.1.3,0,0,0,.2-.2.2,0,0-.2,0-.3,0,0,0-.2,0-.3-.2,0,0-.1-.2-.2-.2,0,0-.1-.1-.2-.2l-4.8.2c-.3,0-.5,0-.6-.1-.1,0-.2-.2-.2-.3s0-.2,0-.2c0,0,.1-.2.2-.2.3-.1.5-.3.7-.5.2-.2.5-.4.7-.5h-1.2c-.1,0-.2,0-.3,0,0,0-.1-.1-.1-.2s0-.2,0-.3.2,0,.3,0h5.2c.1,0,.2,0,.3,0,0,0,0,.1,0,.3,0,.2-.1.3-.4.3h-3c-.3.2-.5.4-.8.6-.2.2-.5.3-.7.5-.1.1-.1.2,0,.1h3.8c0-.2-.1-.3-.2-.3,0,0-.2-.2-.2-.2"/>
  <path class="st0" d="M118.3,8.2h-7.1s-.2-.2-.3-.2c0,0-.1-.1-.1-.3,0-.3.2-.4.5-.4h3v-.7h-2.4c-.1-.2-.2-.2-.3-.3,0,0-.2-.1-.2-.3s0-.2.1-.3c0,0,.4,0,.4,0h2.7v-.6c0-.1,0-.2,0-.3h-2c-.3,0-.5,0-.7,0-.2-.1-.3-.3-.3-.4s0-.2.1-.3c0,0,.2-.2.3-.2.3-.1.5-.3.7-.4.2-.1.3-.2.5-.3h-.9c-.1,0-.3,0-.3,0,0,0-.2-.1-.2-.3,0,.2-.2.3-.4.3s-.3,0-.3-.1c0,0-.1-.2-.1-.3v-.8c0-.4,0-.7.2-.8.2-.2.4-.2.7-.2h2.4s0,0,0,0c0,0,0-.1,0-.1,0-.2-.1-.3,0-.4,0-.1.1-.2.3-.2.1,0,.3,0,.4,0,0,0,.2.2.2.3,0,0,0,.2.1.3,0,0,0,.2.1.3h2.5c.7,0,1,.4,1,1.1s0,.3,0,.4c0,.1,0,.3-.1.5,0,.2-.2.3-.3.4,0,0-.2,0-.3,0-.1,0-.2-.1-.2-.2,0,0-.2.1-.4.1h-.5s0,0,0,0c.1.1.3.3.4.4s.2.3.3.4c.1.1.2.3.3.4.1.1.2.3.3.4.1.2.2.3.2.4s0,.2-.2.3c-.1,0-.2,0-.3,0-.1,0-.2-.1-.4-.3h0c0-.1-.1-.2-.2-.3,0,0,0-.1-.1-.2h-2.1c0,.2.1.3.1.4v.4h2.5c.1,0,.3,0,.3,0,0,0,.1.2.1.3,0,.2,0,.3-.2.3,0,0-.2,0-.3.3h-2.5v.7h3.1c.4,0,.5.3.5.5s0,.3-.1.3c0,0-.2,0-.3,0h0ZM111.2,7.4c-.2,0-.2,0-.2.2s0,.1,0,.1c0,0,.2,0,.2,0h7.1s.2,0,.2,0c0,0,0,0,0-.1s0-.2-.3-.1h-3.4v-1.3h2.8c0,0,.2-.1.2-.2,0,0,0,0,0-.1s0-.1,0-.2c0,0-.2.1-.2.1h-2.8v-1c0,0,0-.1,0-.2,0,0,0,0-.2,0-.1,0-.2,0-.2.2v1h-2.7c0-.2-.2-.2-.2-.1,0,0,0,0,0,.2,0,.1,0,.1,0,.1,0,0,.1,0,.2.2h2.7v1.3h-3.3ZM117.2,4.3h0c0,0,.1.2.2.2,0,0,0,.1.2.2h0c0,.1.2.2.2.2,0,0,.1,0,.2,0,0,0,0-.1,0-.2,0,0,0-.1-.1-.2-.1-.1-.2-.3-.3-.4-.1-.1-.2-.2-.3-.4-.1-.1-.2-.2-.3-.3-.1-.1-.2-.2-.4-.4-.1-.1-.2-.1-.2-.2,0,0-.1,0-.2,0,0,0,0,0,0,.1s0,.1,0,.2c0,0,.2.2.2.2,0,0,.1.1.2.2l.2.2h-3.9c0,.1-.2.1-.2,0,0-.1,0-.2.1-.2.2-.1.4-.3.6-.5.2-.2.5-.4.7-.6v.3h3s.2-.4.2-.5,0-.1,0-.2c0,0-.2,0-.2,0h-5.1s-.2,0-.2,0c0,0,0,0,0,.2s0,.1,0,.1c0,0,.2,0,.2,0h1.5l-.2.2c-.3.2-.5.4-.7.5-.2.2-.5.3-.7.5,0,0-.2.1-.2.2,0,0,0,.1,0,.2s0,.1.1.2c.1,0,.3.1.6,0l4.8-.2h0ZM114.4,2.9c-.3.2-.5.4-.7.6-.2.1-.4.3-.6.4h3.3c0,0,0-.1,0-.1,0,0-.2-.2-.2-.2-.1-.1-.2-.2-.2-.3s0-.2.1-.3h-1.7ZM111.8,1.3h5.8c.3,0,.4.2.4.4s0,.2,0,.3c0,0,0,.2-.1.4,0,.2,0,.2,0,.3,0,0,0,0,.1.1,0,0,.1,0,.2,0,0,0,.1-.1.2-.2,0-.2.1-.3.1-.4,0-.1,0-.2,0-.4,0-.5-.8-1.1-.8-1.1h-2.6v.2c0-.1-.1-.2-.2-.3,0-.1,0-.2-.1-.2,0-.1-.1-.2-.2-.2,0,0-.1,0-.2,0,0,0-.1,0-.1.1,0,0,0,.1,0,.2,0,0,0,.1,0,.2,0,0,0,.1,0,.2v.2c0,0-2.7,0-2.7,0-.3,0-.5,0-.6.1-.1.1,0,.6,0,.6v.7s-.2.2-.2.2c0,0,0,0,.2,0,.1,0,.2,0,.3-.2v-.7c-.1,0,0-.2,0-.2,0,0,.1-.1.2-.1h0ZM111.6,1.6c.2,0,.2,0,.1,0,0,0,0,0-.1,0v.7c.1,0,.2-.2.2-.2,0,0,.2-.1.4-.2h5.1c.1,0,.3,0,.3.2,0,0,0,0,0,.1,0-.1.1-.3.1-.3,0,0,0-.1,0-.2s0-.2-.2,0h-6Z"/>
</svg>