<svg xmlns="http://www.w3.org/2000/svg" width="214.411" height="50.626" viewBox="0 0 214.411 50.626"><g id="logo" transform="translate(-197.573 -155.113)" fill="#ea609e"><g id="グループ_7208" transform="translate(197.573 160.713)"><path id="パス_32305" d="M218.808 191.394a27.332 27.332 0 00-2.8-7c-.492-.669-.355-1.4-1.4-1.4a67.12 67.12 0 002.8-7 3.3 3.3 0 002.8 2.8h1.4a36.32 36.32 0 01-1.4 7 44.38 44.38 0 01-1.4 5.6c-.032-.205.054.218 0 0zm-12.6-25.2a49.776 49.776 0 01-4.2 8.4c-.542-.195-.826-1.4-1.4-1.4a5.9 5.9 0 00-2.8 1.4c-.535.548 0 1.922 0 2.8 0 .987.644.634 1.4 1.4 2.621 2 4.471 5.691 7 8.4-1.352 2.558-2.555 4.22-4.2 7a10.4 10.4 0 00-1.4 0c-2.1.264-2.8 1.287-2.8 2.8 0 2.435.588 4.2 2.8 4.2a46.787 46.787 0 007-1.4 53.842 53.842 0 007-1.4c.073.147-.147-.084 0 0 .109.062 1.253-.048 1.4 0-.195.281-1.205 1.119-1.4 1.4-.317.572 0 .949 0 1.4 0 .647-.451.787 0 1.4a3.545 3.545 0 002.8 1.4 3 3 0 002.8-1.4c2.439-3.728 4.321-9.741 5.6-16.8a26.791 26.791 0 001.4-7h2.8c.652 0 1.4-.644 1.4 0 0 7.825.106 14.008 0 16.8-.176 1.121-1.119 1.037-1.4 1.4-.305.332.457 1.4 0 1.4a14.3 14.3 0 01-2.8 0 13.691 13.691 0 00-1.4 0c-.444.2-1.035-.37-1.4 0-.281.814-1.4 2.287-1.4 2.8 0 .714 1.119.935 1.4 1.4.292.486.673 1.23 1.4 1.4a10.109 10.109 0 002.8 0h1.4a5.317 5.317 0 004.2-1.4 10.406 10.406 0 002.8-5.6c.267-3.012 0-7.116 0-12.6 0-5.849-.858-8.96-1.4-9.8-.507-1.147-.765-1.4-2.8-1.4h-5.6c.037-1.487 0-3.966 0-5.6-.03-.8.428-.972 0-1.4-.393-.355-1.776.061-2.8 0-.877.111-.89-.4-1.4 0a5.551 5.551 0 00-1.4 2.8v4.2h-1.4c-.913.061-2.334-.526-2.8 0-.107-.694.481-1.131 0-1.4-.74-.391-2.25 0-2.8 0-1.242 0-1 .523-1.4 1.4-.956 2.485-2.87 5.6-4.2 8.4-.962-1.291-1.8-3.2-2.8-4.2a37.634 37.634 0 004.2-7c.444-.743 1.4-2.07 1.4-2.8 0-.9-.6-.9-1.4-1.4-.822-.413-2.189-1.4-2.8-1.4-.963.037-.916.451-1.4 1.4zm5.6 21c.6 1.924.947 3.977 1.4 5.6-5.814.8-.037.692-5.6 1.4 1.28-2.1 3.113-5.111 4.2-7z" transform="translate(-197.573 -164.797)"/><path id="パス_32306" d="M289.115 182.954c-.76 0 0-.6 0-1.4v-1.4h11.2v1.4a1.387 1.387 0 01-1.4 1.4zm-16.8-16.8c-.567.5 0 1.837 0 2.8v18.2c0 .768-.451.866 0 1.4a4.113 4.113 0 002.8 1.4 3.632 3.632 0 002.8-1.4c.433-.509 0-.632 0-1.4v-18.2a4.572 4.572 0 00-1.4-2.8c-.571-.525-.425 0-1.4 0s-2.342-.525-2.8 0zm9.8 4.2v14a3.929 3.929 0 004.2 4.2h15.4a3.929 3.929 0 004.2-4.2v-14a3.924 3.924 0 00-4.2-4.2h-15.4a3.924 3.924 0 00-4.2 4.2zm7 1.4c0-.757-.76 0 0 0h9.8c.763 0 1.4-.757 1.4 0v2.8h-11.2zm-11.2 18.2a30.462 30.462 0 01-2.8 5.6 25.242 25.242 0 01-4.2 4.2c-.438.377-1.4 1.046-1.4 1.4 0 1.05.706.825 1.4 1.4a3.8 3.8 0 002.8 1.4 2.945 2.945 0 002.8-1.4 19.3 19.3 0 004.2-4.2 19.636 19.636 0 002.8-5.6c.232-.529 0-.951 0-1.4a3.408 3.408 0 00-1.4-2.8c-.781-.365-1.812 0-2.8 0-.938 0-1 .179-1.4 1.4zm12.6-1.4a6.265 6.265 0 00-1.4 2.8v7a6.517 6.517 0 001.4 4.2c.736 1.01 2.53 1.4 4.2 1.4h5.6c2.541-.255 4.721-1.133 5.6-2.8a10.738 10.738 0 001.4-5.6 4.918 4.918 0 00-1.4-2.8c-.646-.479-.431.038-1.4 0-1.427.137-2.447.634-2.8 1.4-.135 1.474-1.108 1.944-1.4 2.8-.218.538-.835 1.4-1.4 1.4h-2.8c-.647 0 0-.756 0-1.4v-5.6a4.808 4.808 0 00-1.4-2.8c-.573-.487-.551 0-1.4 0-1 0-2.324-.487-2.8 0z" transform="translate(-225.886 -164.756)"/></g><g id="グループ_7210" transform="translate(287.399 155.113)"><path id="パス_32307" d="M344.656 217.286l7 5.6 8.4-9.8-7-5.6z" transform="translate(-344.656 -175.291)"/><path id="パス_32308" d="M390.9 210.9l9.8 12.6 7-5.6-8.4-12.6z" transform="translate(-362.904 -174.508)"/><g id="グループ_7209" transform="translate(1.4)"><path id="パス_32309" d="M384.665 155.113a7.965 7.965 0 00-8.4 8.4 9.174 9.174 0 002.8 7h-7v-9.8h-9.8v9.8h-15.4v8.4h15.4v23.8h9.8v-23.8h12.6v-5.6c5 0 9.8-4.813 9.8-9.8 0-5.008-4.8-8.4-9.8-8.4zm85.389 28h-37.8v8.4h37.8zm-85.389-16.8a2.863 2.863 0 01-2.8-2.8c0-1.5 1.3-1.4 2.8-1.4s2.8-.1 2.8 1.4a2.866 2.866 0 01-2.8 2.8z" transform="translate(-346.87 -155.113)"/><path id="パス_32310" d="M469.7 155.113c-5 0-9.8 3.391-9.8 8.4 0 4.986 4.8 9.8 9.8 9.8s8.4-4.813 8.4-9.8a7.974 7.974 0 00-8.4-8.4zm0 11.2a2.862 2.862 0 01-2.8-2.8c0-1.5 1.3-1.4 2.8-1.4s2.8-.1 2.8 1.4a2.862 2.862 0 01-2.8 2.8z" transform="translate(-391.306 -155.113)"/><path id="パス_32311" d="M439.124 194.354v-7h15.4v-9.8h-15.4v-11.2h-9.8v28s-.643 14.665 9.8 15.4c7.083.523 21 0 21 0v-9.8a38.129 38.129 0 00-7 0c-15.543 2.168-14-5.6-14-5.6z" transform="translate(-378.932 -159.359)"/></g></g></g></svg>