<svg id="グループ_9266" xmlns="http://www.w3.org/2000/svg" width="180.672" height="49.458" viewBox="0 0 180.672 49.458"><defs><clipPath id="clip-path"><path id="長方形_203" fill="none" d="M0 0h180.672v49.458H0z"/></clipPath></defs><g id="グループ_277" clip-path="url(#clip-path)"><path id="パス_73" d="M0 33.664a17.712 17.712 0 1017.712-17.712A17.712 17.712 0 000 33.664" transform="translate(0 -8.935)" fill="#92c58e"/><path id="パス_74" d="M13.437 44.312c-.157 2.31-.761 5.446-2.389 7.48l-1.391-1.207c.669-.853 1.706-2.467 2.048-6.5zm3.373-2.559v10.905a1.264 1.264 0 01-1.445 1.43h-2.4l-.407-1.745h2.059c.421 0 .46-.184.46-.394v-10.2zm4.212 10.039c-1.233-2.021-1.876-3.688-2.493-7.532l1.732-.25a16.361 16.361 0 002.152 6.562z" transform="translate(-5.409 -23.387)" fill="#fff"/><path id="パス_75" d="M52.481 46v1.286a12.881 12.881 0 01-3.1 1.929h5.289v1.51h-5.42v1.994c0 .644-.053 1.352-1.287 1.352H45.42l-.274-1.627h1.915c.459 0 .513-.053.513-.512v-1.21h-5.369v-1.51h5.369v-.866l.538.013a5.286 5.286 0 001.628-.892h-5.329V46zm-8.372-2.31a8.288 8.288 0 00-.814-1.522l1.587-.486a7.481 7.481 0 011.011 2.008H47.9a8.276 8.276 0 00-.853-1.627l1.6-.486a8.343 8.343 0 01.958 2.113h1.456a11.726 11.726 0 00.841-2.06l1.757.446a14.332 14.332 0 01-.8 1.614h1.484v3.11h-1.6v-1.655h-8.6V46.8h-1.609v-3.11z" transform="translate(-23.64 -23.287)" fill="#fff"/><path id="パス_76" d="M184.412 1.914a5.882 5.882 0 00-4.656 9.548 81.27 81.27 0 01-23.022 9.395l.607-9.9c0-1.2.156-4.533.313-6.1h-10.645c.208 1.667.364 4.741.364 6.1l.607 28.5c0 9.327 5.418 10 21.412 10 6.3 0 12.138-.1 17.609-.26l.33-12a15.17 15.17 0 01-3.562-.277l-.634 4.452s-11.675.169-15.149.169c-10.627 0-11.253-.156-11.253-5v-8.6c15.733-4.012 23.183-5.037 28.7-8.476l-2.933-6.09a6.011 6.011 0 001.906.312 5.887 5.887 0 000-11.774m0 9.013a3.135 3.135 0 01-3.12-3.126 3.1 3.1 0 016.2 0 3.124 3.124 0 01-3.075 3.126m46.31 10.034c-4.3.431-9.626 1.368-13.835 1.686l-13.273 1.233c-1.195.09-6.3.319-7.7.373l-1.376-3.657-3.437 1.122 1.527 10.614c1.97-.2 9.338-.318 11.572-.486l13.273-.294c4.207-.318 9.41-.776 13.885-1.011zM90.481 41.1l5.419 3.863c5.155-5.945 6.014-6.946 9.54-16.2l-8.277-2.577c-1.211 4.734-.947 6.452-6.682 14.922m42.027-16.135l-5.681 3.42c6.139 8.224 6.724 11.365 7.68 14.134L142.978 37c-.632-1.262-2.893-4.665-10.47-12.031M137.62 11a5.909 5.909 0 10-7.52-1.371c-3.073.293-6.2.583-8.287.744l.214-8.8h-10.939l.361 9.885-17.26 1.828.072 6.758c1.83-.179 13.377-.373 15.452-.53l2.027-.061.89 24.393s-4.541-.8-5.279-.854l-.177 4.523L120.875 49l.726-29.843.431-.013c3.906-.294 11.807-.712 15.961-.944zm-2.92-1.988a3.135 3.135 0 01-3.126-3.126 3.1 3.1 0 016.2 0 3.124 3.124 0 01-3.074 3.126" transform="translate(-50.681)" fill="#92c58e"/></g></svg>