<svg xmlns="http://www.w3.org/2000/svg" width="170.971" height="69.692" viewBox="0 0 170.971 69.692"><g id="グループ_9267" transform="translate(-1275.591 -1363.179)" fill="#234db5"><path id="パス_32313" d="M1563.57 1432.39a2.423 2.423 0 00.687-1.144c2.144-4.781 4.262-9.574 6.425-14.346.633-1.4 1.374-2.748 2.083-4.11.866-1.664.84-1.73-1.074-1.944-.7-.079-1.414-.1-2.12-.166a4.206 4.206 0 01-2.017-.6c-.189-.126-.434-.252-.332-.545.078-.222.31-.219.5-.229.943-.051 1.887-.123 2.83-.129 2.639-.017 5.278 0 7.918-.007a5.8 5.8 0 011.638.186c.427.125.439.4.193.715a1.327 1.327 0 01-.926.468c-.584.076-1.173.154-1.761.172a2.661 2.661 0 00-2.577 1.689c-1.865 4-3.8 7.962-5.717 11.938-1.5 3.124-3 6.249-4.522 9.365a4.112 4.112 0 00-.4 1.812c-.067 4.687.075 9.372.11 14.057 0 .276-.009.553 0 .827.045.936.267 1.171 1.194 1.256 1.019.095 2.039.17 3.058.274a3.625 3.625 0 011.474.382.489.489 0 01.256.5c-.031.227-.222.314-.427.333-.274.025-.55.035-.826.035h-19.026c-.237 0-.474 0-.709-.019-.266-.027-.592-.011-.606-.4-.011-.327.224-.49.5-.573a17.057 17.057 0 013.5-.494c1.867-.152 1.9-.142 1.89-2.021-.011-4.217-.04-8.433-.043-12.65a4.5 4.5 0 00-.465-2.045q-5.038-10.232-10.05-20.476c-.451-.92-.906-1.838-1.33-2.771a2.272 2.272 0 00-1.782-1.384c-.387-.068-.769-.168-1.151-.264a.416.416 0 01-.357-.411c0-.237.194-.328.4-.345.275-.023.551-.03.826-.03q8.627 0 17.253.009c.438 0 .994-.207 1.269.331.156.305-.417.74-1.235.857-1.246.177-2.5.287-3.753.429-1.007.115-1.109.263-.728 1.181.728 1.75 1.76 3.345 2.623 5.027a103.029 103.029 0 015.787 12.8 5.048 5.048 0 001.52 2.46z" transform="translate(-133.902 -21.59)"/><path id="パス_32314" d="M1398.848 1416.07a18.6 18.6 0 00-15.945-9.252 21.884 21.884 0 00-16.72 6.688 15.809 15.809 0 00-5 12.085c.048 1.456.008 2.915.008 4.372 0 1.654.017 3.308 0 4.962a14.264 14.264 0 002.574 8.576c4.937 7.011 11.752 10.33 20.289 9.685a18.756 18.756 0 0013.717-7.438 23.658 23.658 0 004.876-12.357 26.411 26.411 0 00-3.799-17.321zm-6.222 20.637a19.216 19.216 0 01-2.592 9.577 13.825 13.825 0 01-2.973 3.486c-2.815 2.445-8.188 2.5-11.05-.377a14.331 14.331 0 01-3.669-6.625 45.281 45.281 0 01-1.413-10.861 49.23 49.23 0 011.4-14.518 18.377 18.377 0 011.7-4.262c3.432-5.922 11-6.432 15.246-.536a18.314 18.314 0 013.336 10.415c.068 2.361.013 4.725.013 7.086.008 2.208.029 4.408.003 6.615z" transform="translate(-43.403 -20.394)"/><path id="パス_32315" d="M1494.231 1418.307a5.524 5.524 0 00-1.36-3.572 10.724 10.724 0 00-2.533-2.284 18.831 18.831 0 00-10.258-3.065c-6.732.043-13.464.011-20.2.011-.354 0-.709-.008-1.062.013-.3.019-.7-.045-.776.361-.082.445.3.613.641.715a5.976 5.976 0 001.155.217c.469.046.945.023 1.415.063 1.659.141 1.8.287 1.8 1.91v36.982c0 .354.013.71-.01 1.063-.054.8-.174.929-.992 1.016-.39.042-.786.034-1.18.041a7.714 7.714 0 00-2.206.36c-.408.13-.924.29-.808.834.091.431.586.258.915.3a2.624 2.624 0 00.354 0h19.014c.276 0 .552 0 .825-.028.189-.018.412-.027.468-.27a.471.471 0 00-.31-.569 6.832 6.832 0 00-1.364-.346 56.722 56.722 0 00-3.054-.292c-1.409-.1-1.824-.5-1.858-1.879-.01-.433 0-.867-.005-1.3-.048-3.03.1-6.062-.1-9.093-.071-1.058 0-2.126-.012-3.189-.007-.583.223-.892.837-.851.2.013.393 0 .59 0a42.792 42.792 0 009.723-1.01 18.533 18.533 0 007.053-2.895 6.877 6.877 0 003.3-5.691q.033-3.77-.002-7.552zm-9.312 8.922a10.714 10.714 0 01-1.7 3.085 6.842 6.842 0 01-3.429 2.386 27.059 27.059 0 01-5.793 1.032c-1.022.082-1.141-.027-1.145-1.108-.013-3.306 0-6.612 0-10.748.042-2.475.041-5.78.259-9.08.133-2.024.36-2.238 2.349-2.06 1.253.112 2.506.208 3.748.434a6.357 6.357 0 013.988 2.524 11.963 11.963 0 012.381 5.96 16.241 16.241 0 01-.659 7.575z" transform="translate(-92.427 -21.703)"/><path id="パス_32316" d="M1312.039 1418.382a5.532 5.532 0 00-1.125-3.3 10.815 10.815 0 00-2.545-2.444 18.38 18.38 0 00-10.325-3.23c-3.229.021-6.457 0-9.685 0h-10.985c-.354 0-.709 0-1.062.031-.24.017-.475.083-.505.386a.568.568 0 00.36.556 2.894 2.894 0 001.249.316c.549.045 1.1.023 1.652.067 1.658.132 1.847.343 1.847 2.026v36.87c0 .355.012.711-.017 1.063-.065.77-.222.937-1.019 1.015-.547.055-1.1.019-1.65.072a5.377 5.377 0 00-2.275.551.592.592 0 00-.355.57c.037.3.308.319.54.337.275.021.55.021.826.021h18.9c.314 0 .63-.011.943-.038.2-.016.4-.091.416-.331a.491.491 0 00-.275-.487 3.213 3.213 0 00-.782-.243 27.468 27.468 0 00-3.633-.414c-1.49-.062-1.887-.469-1.9-1.936q-.037-6.263-.059-12.525c-.006-1.753 0-1.777 1.762-1.8a46.871 46.871 0 009.366-1.069 17.912 17.912 0 007.138-2.985 7.052 7.052 0 003.189-5.524c.097-2.518.109-5.037.009-7.555zm-9.309 8.7a10.38 10.38 0 01-1.491 2.933 7.072 7.072 0 01-3.746 2.723 26.986 26.986 0 01-5.667 1.073c-1.1.094-1.241-.034-1.246-1.146-.014-3.345-.005-6.689-.005-10.034q.018-4.96.311-9.91c.116-1.98.331-2.15 2.3-1.988a34.321 34.321 0 013.978.483 6.291 6.291 0 013.628 2.263 10.115 10.115 0 011.871 3.392 16.242 16.242 0 01.067 10.215z" transform="translate(0 -21.713)"/><g id="グループ_7334" transform="translate(1276.459 1363.179)"><path id="パス_32317" d="M1289.171 1381.425c0 .234 0 .917-.97.917-.916 0-1.006-.54-1.006-.917v-4.114h-4.419c-1.618 0-2.372-.539-2.372-2.37v-4.205c0-1.85.773-2.353 2.372-2.353h4.419v-2.012c0-.27.035-.9.933-.9.737 0 1.042.252 1.042.9v2.012h4.456c1.634 0 2.37.539 2.37 2.353v4.205c0 1.778-.7 2.37-2.37 2.37h-4.456zm-1.976-11.246h-3.935a.8.8 0 00-.917.916v3.5a.8.8 0 00.917.916h3.935zm1.976 5.335h3.971a.809.809 0 00.916-.916v-3.5a.81.81 0 00-.916-.916h-3.971z" transform="translate(-1280.404 -1365.167)"/><path id="パス_32318" d="M1332.654 1375.776a.809.809 0 01.933.863c0 .826-.629.862-.933.862h-6.395v2.569c0 2.048-.953 2.048-3.073 2.048a16.88 16.88 0 01-1.707-.053c-.558-.109-.629-.772-.629-.97a.8.8 0 01.9-.881c.09 0 1.384.036 1.635.036.576 0 .916-.071.916-.844v-1.9h-6.647a.809.809 0 01-.934-.862c0-.791.575-.863.934-.863h6.647v-.629c0-.537.377-.61.7-.593a7.561 7.561 0 002.3-1.364c0-.144-.144-.144-.323-.144h-6.593a.721.721 0 01-.826-.808.768.768 0 01.844-.826h8.533c.665 0 1.491 0 1.491.952 0 .844-.647 1.293-1.437 1.8a18.3 18.3 0 01-2.73 1.454v.162zm-7.8-7.455a3.721 3.721 0 01-.683-1.078c-.449-.9-.5-1.006-.5-1.221 0-.5.629-.755 1.06-.755.521 0 .665.252.97.808.629 1.113.629 1.33.629 1.527a.7.7 0 01-.52.719h2.82a15.556 15.556 0 00.97-1.814c.413-.862.521-1.095 1.059-1.095.414 0 1.079.233 1.079.808a6.358 6.358 0 01-1.042 2.1h.7a1.7 1.7 0 011.725 2.012v1.384a.8.8 0 01-.88.933c-.773 0-1.025-.269-1.025-.916v-1.133a.572.572 0 00-.647-.647h-10.778a.567.567 0 00-.646.647v1.115a.8.8 0 01-.881.933c-.7 0-1.006-.233-1.006-.916v-1.4c0-1.492.574-2.012 1.994-2.012h.61c-.125-.143-.5-.9-.592-1.042-.468-.772-.522-.862-.522-1.077 0-.467.576-.79 1.043-.79.52 0 .736.323 1.114.951a3.941 3.941 0 01.61 1.436.621.621 0 01-.251.522z" transform="translate(-1297.631 -1365.07)"/><path id="パス_32319" d="M1360.54 1373.208a16.847 16.847 0 01-1.6 4.546c-.215.377-1.293 2.317-2.174 2.317-.466 0-1.2-.359-1.2-1.041 0-.342.035-.4.826-1.312a11.1 11.1 0 001.959-3.935c.233-.79.268-1.041.466-1.239a1.065 1.065 0 01.845-.179c.447.071.878.323.878.843zm1.761-6.557c0-.359.035-.97 1-.97.827 0 1.043.4 1.043.97v2.192h5.443a.886.886 0 011.025.934.9.9 0 01-1.025.969h-5.443v9.881c0 .377-.054.97-1.023.97-.791 0-1.024-.358-1.024-.97v-9.881h-5.408a.954.954 0 110-1.9h5.408zm5.892 6.594a10.83 10.83 0 002.1 4.473c.791.934.827.97.827 1.312 0 .682-.754 1.041-1.2 1.041-.773 0-1.707-1.454-2.21-2.39a17.757 17.757 0 01-1.562-4.454c0-.575.449-.791.88-.862.896-.126 1.039.413 1.165.88zm1.671-4.455a1.949 1.949 0 111.94-1.94 1.943 1.943 0 01-1.94 1.94zm0-2.91a.961.961 0 10.97.97.966.966 0 00-.97-.97z" transform="translate(-1316.057 -1364.891)"/><path id="パス_32320" d="M1398.2 1377.65c0 .665 0 1.2.952 1.311.683.072 2.82.072 3.683.072 1.759 0 2.892-.019 3.916-.072.5-.017 1.276-.09 1.779-.09a.831.831 0 01.934.935c0 .88-.558 1.077-2.371 1.149-1.258.054-3.719.054-5.1.054a28.315 28.315 0 01-4.006-.2 2.391 2.391 0 01-1.869-2.676v-11.083c0-.467.126-.951 1.042-.951.772 0 1.041.323 1.041.951v4.815a39.32 39.32 0 006.737-2.282c1.634-.754 1.778-.808 2.1-.808a1.146 1.146 0 01.988 1.114c0 .4-.108.7-2.12 1.509-.952.394-3 1.113-4.4 1.563a33.638 33.638 0 01-3.305.88zm10.814-8.587a1.949 1.949 0 111.941-1.958 1.962 1.962 0 01-1.941 1.958zm0-2.91a.96.96 0 10.953.952.962.962 0 00-.953-.952z" transform="translate(-1335.294 -1365.021)"/><path id="パス_32321" d="M1431.409 1381.62c-.323 0-1.132 0-1.132-1.025 0-1.006.72-1.041 1.132-1.041h13.8c.323 0 1.113 0 1.113 1.024s-.736 1.042-1.113 1.042z" transform="translate(-1351.499 -1371.847)"/></g></g></svg>