<svg id="tobira_logo-mark" xmlns="http://www.w3.org/2000/svg" width="177.904" height="114.104" viewBox="0 0 177.904 114.104"><defs><clipPath id="clip-path"><path id="長方形_8392" fill="none" d="M0 0h177.904v114.104H0z"/></clipPath></defs><g id="グループ_9314" clip-path="url(#clip-path)"><path id="パス_33782" d="M6.827 115.4A6.971 6.971 0 010 108.31V7.092A6.971 6.971 0 016.827 0a6.638 6.638 0 011.632.2l34.558 8.782a7.027 7.027 0 015.205 6.888v83.663a7.027 7.027 0 01-5.206 6.888L8.46 115.2a6.639 6.639 0 01-1.633.2zM8.472 8.949v97.5l31.278-7.94V16.893z" transform="translate(-.649 -.649)" fill="#024c69"/><path id="パス_33783" d="M46.568 106.908l-34.557 8.777A2.669 2.669 0 018.83 112.9V11.686A2.669 2.669 0 0112.011 8.9l34.557 8.777a2.812 2.812 0 012.012 2.782v83.664a2.812 2.812 0 01-2.012 2.782" transform="translate(-5.243 -5.243)" fill="#b5cb3d"/><path id="パス_33784" d="M200.718 120.527a3.934 3.934 0 01-3.934-3.934V16.8a3.934 3.934 0 014.829-3.831l5.838 1.364a7.775 7.775 0 015.967 7.5v89.727a7.752 7.752 0 01-5.893 7.481l-5.913 1.382a3.935 3.935 0 01-.894.104zm3.934-98.882v89.989l1.009-.236-.111-89.565z" transform="translate(-117.451 -8.243)" fill="#024c69"/><path id="パス_33785" d="M137.773 120.472a6.575 6.575 0 01-1.5-.158l-38.369-8.1a7.091 7.091 0 01-5.641-6.871V27.7a7.091 7.091 0 015.637-6.869l38.369-8.1a7.3 7.3 0 011.5-.158A7.089 7.089 0 01144.9 19.6v93.843a6.914 6.914 0 01-2.176 5.052 7.159 7.159 0 01-4.951 1.977zm-37.647-15.832l36.91 7.795v-91.84l-36.91 7.805z" transform="translate(-55.385 -8.067)" fill="#024c69"/><path id="パス_33786" d="M147.922 38.453a6.313 6.313 0 016.344 6.266v27.672a6.315 6.315 0 01-6.349 6.266h-25.3a6.315 6.315 0 01-6.349-6.266V49.478a6.294 6.294 0 015.16-6.155l25.3-4.759a10.6 10.6 0 011.194-.111zM146.4 70.788V46.632l-22.267 4.188v19.968z" transform="translate(-69.639 -23.436)" fill="#024c69"/><path id="パス_33787" d="M147.742 186.837a6.024 6.024 0 01-1.215-.114l-24.944-4.7a6.534 6.534 0 01-5.32-6.417v-25.195a6.537 6.537 0 016.529-6.53h24.944a6.537 6.537 0 016.53 6.53v29.895a6.531 6.531 0 01-6.524 6.53zM124.131 174.5l22.267 4.2v-26.95h-22.267z" transform="translate(-69.639 -86.038)" fill="#024c69"/><path id="パス_33788" d="M194.179 124.015c3.371 0 6.113 3.032 6.113 6.759s-2.742 6.759-6.113 6.759-6.112-3.032-6.112-6.759 2.741-6.759 6.112-6.759z" transform="translate(-112.275 -74.242)" fill="#024c69"/><path id="パス_33789" d="M210.822 119.495l-5.838 1.364V21.067l5.838 1.364a3.819 3.819 0 012.928 3.668v89.728a3.819 3.819 0 01-2.928 3.668" transform="translate(-121.717 -12.509)" fill="#0691d1"/><path id="パス_33790" d="M102.978 112.629l38.369 8.1a3.177 3.177 0 003.889-3.022V23.866a3.177 3.177 0 00-3.889-3.022l-38.369 8.1a3.12 3.12 0 00-2.52 3.022v77.638a3.12 3.12 0 002.52 3.022" transform="translate(-59.651 -12.334)" fill="#86cff3"/><path id="パス_33791" d="M126.416 51.456l25.3-4.76a2.392 2.392 0 012.877 2.288v27.673a2.375 2.375 0 01-2.415 2.332h-25.3a2.374 2.374 0 01-2.415-2.332V53.745a2.354 2.354 0 011.953-2.288" transform="translate(-73.905 -27.702)" fill="#fff"/><path id="パス_33792" d="M126.578 182.423l24.944 4.7a2.6 2.6 0 003.076-2.551v-29.9a2.6 2.6 0 00-2.6-2.6h-24.94a2.6 2.6 0 00-2.6 2.6v25.195a2.6 2.6 0 002.115 2.551" transform="translate(-73.905 -90.305)" fill="#fff"/><path id="パス_33793" d="M200.624 135.04c0 1.56-.975 2.824-2.178 2.824s-2.178-1.265-2.178-2.824.975-2.824 2.178-2.824 2.178 1.265 2.178 2.824" transform="translate(-116.541 -78.509)" fill="#fff"/><path id="パス_33794" d="M112.481 73.338a2.273 2.273 0 01-2.273-2.273V37.137l-7.178 1.516a3.187 3.187 0 00-2.573 3.086v77.532a3.187 3.187 0 002.573 3.086l7.178 1.516V86.362a2.534 2.534 0 012.534-2.534h22.5a2.071 2.071 0 002.107-2.034v-6.423a2.071 2.071 0 00-2.107-2.034z" transform="translate(-59.65 -22.052)" fill="#ea678a"/><path id="パス_33795" d="M107.426 33.705v33.928a2.273 2.273 0 002.273 2.273h22.763a2.071 2.071 0 012.107 2.034v6.423a2.071 2.071 0 01-2.107 2.034h-22.5a2.534 2.534 0 00-2.534 2.534v37.511l-7.177-1.516a3.187 3.187 0 01-2.574-3.086V38.307a3.187 3.187 0 012.574-3.086zm1.9-2.347l-2.3.485-7.178 1.516a5.118 5.118 0 00-4.084 4.949v77.532a5.118 5.118 0 004.084 4.949l7.178 1.516 2.3.485V82.931a.631.631 0 01.63-.63h22.5a3.979 3.979 0 004.01-3.937V71.94a3.979 3.979 0 00-4.005-3.94H109.7a.37.37 0 01-.369-.369V31.358z" transform="translate(-56.868 -18.62)" fill="#024c69"/><path id="パス_33796" d="M274.764 177h-18.338c-6.881-.693-10.822-4.642-11.443-11.137l-.015-44.572a3.372 3.372 0 013.372-3.372h6.239a3.372 3.372 0 013.372 3.372v9.109h4.206a1.791 1.791 0 00.853-.906l1.911-5.184a3.357 3.357 0 011.313-1.639v-4.244a3.372 3.372 0 013.372-3.372h5.221a3.385 3.385 0 002.484 0h5.221a3.372 3.372 0 013.372 3.372v5.349a3.372 3.372 0 01-3.372 3.372h-5.263a3.372 3.372 0 01-.183 1.715l-2.165 5.667a15 15 0 01-4.99 6.238 14.3 14.3 0 01-7.639 2.55h-4.341v20.718l16.812-.019a3.372 3.372 0 013.372 3.372v6.24a3.372 3.372 0 01-3.371 3.371zm-23.052-41.455v2.625a3.385 3.385 0 011.511-1.312 3.385 3.385 0 01-1.511-1.312z" transform="translate(-145.976 -68.835)" fill="#024c69"/><path id="パス_33797" d="M359.522 120.54h22.667a3.372 3.372 0 013.372 3.372v6.24a3.372 3.372 0 01-3.372 3.372h-22.667a3.372 3.372 0 01-3.372-3.372v-6.24a3.372 3.372 0 013.372-3.372zm-1.528 13.18h20.056c6.816.637 10.764 4.578 11.44 11.112l.018 3.849a22.364 22.364 0 01-4.648 12.818l-15.581 18.218a3.372 3.372 0 01-4.728.392l-4.711-3.948a3.372 3.372 0 01-.4-4.772l15.472-18.146a9.725 9.725 0 001.688-4.847l-.006-1.7-18.6.009a3.372 3.372 0 01-3.372-3.372v-6.24a3.372 3.372 0 013.372-3.373z" transform="translate(-211.088 -72.092)" fill="#024c69"/><path id="パス_33798" d="M260.083 177.286q-7.383-.763-8.083-8.086v-44.252h6.239v12.479h7.578a4.828 4.828 0 003.82-2.674l2.1-5.6 5.857 2.165-2.165 5.667a11.5 11.5 0 01-3.82 4.712 10.848 10.848 0 01-5.794 1.91h-7.578v25.6a1.847 1.847 0 001.847 1.846h18.338v6.24zm13.18-55.2h5.221v5.349h-5.221zm7.7 0h5.221v5.349h-5.221z" transform="translate(-149.633 -72.492)" fill="#fff474"/><path id="パス_33799" d="M381.707 140.749q7.322.7 8.086 8.086v3.5a18.85 18.85 0 01-3.947 10.76l-15.472 18.085-4.711-3.948 15.472-18.146a13.208 13.208 0 002.482-6.749v-3.5a1.875 1.875 0 00-1.91-1.847h-20.056v-6.24zm-18.528-13.18h22.667v6.24h-22.667z" transform="translate(-214.745 -75.749)" fill="#f4a631"/><path id="パス_33800" d="M47.606 52.02a1.887 1.887 0 011.057 1.68v1.1h-2.092v-.949a1.623 1.623 0 00-.84-.194h-.345v1.9a2.963 2.963 0 01-2.953 2.954H42.2a2.945 2.945 0 01-2.954-2.954V54.5a2.918 2.918 0 012.954-2.933h1.078v-3.3h-4.035v-2.09h4.032v-1.744h-4.032v-2.112h4.032V40.79h2.111v1.531h2.673v2.113h-2.673v1.746h2.673v2.09h-2.673v3.3h.345a3.746 3.746 0 011.875.453m-4.332 3.535v-1.9H42.2a.812.812 0 00-.841.841v1.055a.812.812 0 00.841.841h.236a.829.829 0 00.841-.841" transform="translate(-23.302 -24.221)" fill="#fff"/><path id="パス_33801" d="M37.622 102.655l-1.574 4.872-2-.691 1.572-4.827a14.922 14.922 0 00.561-3.363v-.086h-1.339v-2.113h1.336v-1.638h2.113v1.638h2.371v2.113h-2.371v.086a16.488 16.488 0 01-.668 4.009m7.975 4.2a2.479 2.479 0 01.949 1.919v1.552h-2.092v-1.552a.665.665 0 00-.668-.474v1.358a2.953 2.953 0 01-2.931 2.954h-.107a2.945 2.945 0 01-2.954-2.954v-.538a2.945 2.945 0 012.954-2.954h.951v-3.794h2.091v3.794a3.207 3.207 0 011.81.689m-3.9 2.8v-1.379h-.947a.812.812 0 00-.841.841v.538a.812.812 0 00.841.841h.107a.828.828 0 00.84-.841m1.273-11.877H46.4V99.9h-3.431z" transform="translate(-20.216 -56.297)" fill="#fff"/><path id="パス_33802" d="M37.014 150.585a.211.211 0 00-.152-.064H34.4v-2.09h2.464a2.208 2.208 0 011.724.776 2.961 2.961 0 01.669 2.263l-.691 5.841a10.337 10.337 0 00.238 3.32l.431 1.531a1.5 1.5 0 001.358 1.035h1.185a.848.848 0 00.841-.841v-10.26a3.084 3.084 0 01.582-1.961 2.305 2.305 0 011.832-.992H47.6v2.113h-2.568a.929.929 0 00-.3.84v10.26a2.981 2.981 0 01-2.953 2.954h-1.188a3.687 3.687 0 01-3.406-2.609l-.41-1.509a12.807 12.807 0 01-.28-4.117l.668-5.841a.955.955 0 00-.151-.648m6.208-3.987h1.767v1.767h-1.766zm2.607 0H47.6v1.767h-1.771z" transform="translate(-20.425 -87.048)" fill="#fff"/><path id="パス_33803" d="M47.032 215.325a6.905 6.905 0 00.712-2.711v-6.791a.739.739 0 00-.751-.749h-.846v4.578a14.7 14.7 0 01-.558 3.579l-.889 2.729a5.386 5.386 0 01-.769 1.442 1.993 1.993 0 01-1.481.808 1.577 1.577 0 01-1.405-1.038 3.848 3.848 0 01-.347-1.6v-9.753a2.583 2.583 0 012.622-2.616h3.663a2.614 2.614 0 012.622 2.616v6.791a9.014 9.014 0 01-.942 3.616l-1.116 2-1.635-.942zm-2.769-5.674v-4.578h-.924a.737.737 0 00-.749.749v9.753a2.025 2.025 0 00.038.4 3.654 3.654 0 00.288-.6l.866-2.731a12.443 12.443 0 00.481-3" transform="translate(-24.169 -120.662)" fill="#fff"/></g></svg>